<?xml version="1.0" standalone="no"?>
<!DOCTYPE svg PUBLIC "-//W3C//DTD SVG 1.1//EN" "http://www.w3.org/Graphics/SVG/1.1/DTD/svg11.dtd" >
<svg xmlns="http://www.w3.org/2000/svg">
<metadata>
Created by FontForge 20120731 at Thu Jul  6 10:19:53 2017
 By admin
</metadata>
<defs>
<font id="iconfont" horiz-adv-x="1024" >
  <font-face 
    font-family="iconfont"
    font-weight="500"
    font-stretch="normal"
    units-per-em="1024"
    panose-1="2 0 6 3 0 0 0 0 0 0"
    ascent="896"
    descent="-128"
    x-height="792"
    bbox="-0.363636 -312 1707 896"
    underline-thickness="0"
    underline-position="0"
    unicode-range="U+0078-E669"
  />
<missing-glyph 
 />
    <glyph glyph-name=".notdef" 
 />
    <glyph glyph-name=".notdef" 
 />
    <glyph glyph-name=".null" horiz-adv-x="0" 
 />
    <glyph glyph-name="nonmarkingreturn" horiz-adv-x="341" 
 />
    <glyph glyph-name="x" unicode="x" horiz-adv-x="1001" 
d="M281 543q-27 -1 -53 -1h-83q-18 0 -36.5 -6t-32.5 -18.5t-23 -32t-9 -45.5v-76h912v41q0 16 -0.5 30t-0.5 18q0 13 -5 29t-17 29.5t-31.5 22.5t-49.5 9h-133v-97h-438v97zM955 310v-52q0 -23 0.5 -52t0.5 -58t-10.5 -47.5t-26 -30t-33 -16t-31.5 -4.5q-14 -1 -29.5 -0.5
t-29.5 0.5h-32l-45 128h-439l-44 -128h-29h-34q-20 0 -45 1q-25 0 -41 9.5t-25.5 23t-13.5 29.5t-4 30v167h911zM163 247q-12 0 -21 -8.5t-9 -21.5t9 -21.5t21 -8.5q13 0 22 8.5t9 21.5t-9 21.5t-22 8.5zM316 123q-8 -26 -14 -48q-5 -19 -10.5 -37t-7.5 -25t-3 -15t1 -14.5
t9.5 -10.5t21.5 -4h37h67h81h80h64h36q23 0 34 12t2 38q-5 13 -9.5 30.5t-9.5 34.5q-5 19 -11 39h-368zM336 498v228q0 11 2.5 23t10 21.5t20.5 15.5t34 6h188q31 0 51.5 -14.5t20.5 -52.5v-227h-327z" />
    <glyph glyph-name="zoom" unicode="&#xe60d;" 
d="M410.5 159q-91.5 0 -169 45t-123 122.5t-45.5 169t45.5 169.5t123 123t169 45t169 -45t123 -123t45.5 -169.5t-45.5 -169t-123 -122.5t-169 -45zM410.5 782q-118.5 0 -202 -84t-83.5 -202t83.5 -202t202 -84t202 84t83.5 202t-83.5 202t-202 84zM923 -61q-11 0 -18 8
l-302 301q-8 8 -8 18.5t8 18t18.5 7.5t18.5 -7l301 -302q8 -7 8 -18t-7.5 -18.5t-18.5 -7.5z" />
    <glyph glyph-name="shouji" unicode="&#xe601;" 
d="M672 831h-319q-35 0 -60 -25t-25 -60v-715q0 -34 25 -59t60 -25h319q35 0 60 25t25 59v715q0 35 -25.5 60t-59.5 25zM467 785h92v0q7 0 7 -8v0q0 -8 -7 -8h-92q-7 0 -7 8t7 8zM512 -20q-12 0 -21 8.5t-9 21t9 21t21 8.5q13 0 21.5 -8.5t8.5 -21t-8.5 -21t-21.5 -8.5v0z
M693 70h-363v669h363v-669z" />
    <glyph glyph-name="user" unicode="&#xe602;" 
d="M918 -51q0 34 -0.5 48.5t-2.5 38t-7 35.5t-13.5 29t-22.5 31.5t-34 30.5q-49 42 -142 59.5t-191 17.5q-234 0 -318 -77q-35 -31 -50 -52.5t-23 -58.5t-8 -102h812zM773 558q0 -108 -76.5 -184.5t-184.5 -76.5t-184.5 76.5t-76.5 184.5t76.5 184.5t184.5 76.5t184.5 -76.5
t76.5 -184.5z" />
    <glyph glyph-name="yanzhengma" unicode="&#xe603;" 
d="M955 760q0 30 -21 51.5t-51 21.5h-743q-30 0 -51 -21.5t-21 -51.5v-742q0 -30 21 -51.5t52 -21.5h742q30 0 51 21.5t21 51.5v742zM863 551l-421 -421q-2 -2 -5 -2v0q-3 0 -5 2l-272 272q-2 2 -2 5v0q0 3 2 6l86 86q6 5 11 0l180 -180l329 329q6 5 11 0l86 -86q5 -5 0 -11
zM863 551z" />
    <glyph glyph-name="mingpian" unicode="&#xe604;" horiz-adv-x="1025" 
d="M624 287h-265v-76h305v40q0 36 -40 36zM746 832h-468q-86 0 -147.5 -61.5t-61.5 -148.5v-467q0 -86 61.5 -147.5t147.5 -61.5h468q86 0 147.5 61.5t61.5 147.5v467q0 87 -61.5 148.5t-147.5 61.5zM751 143h-480v132q0 80 84 80h318q78 0 79 -80zM750 527
q-24 -103 -156 -144h-326v68h171l-40 61h101l39 -61q106 22 118 90h-286q-44 -33 -93 -38l-1 85q41 18 58 45l76 1l-7 -18h311q58 -15 35 -89z" />
    <glyph glyph-name="zhengque" unicode="&#xe605;" 
d="M789 468q18 18 19 45q1 26 -17 44t-44 17.5t-44 -18.5l-284 -282l-97 96q-18 18 -44 18.5t-44 -17.5t-18.5 -42.5t17.5 -42.5l139 -140q18 -18 47.5 -17.5t47.5 18.5l-4 -4zM512.5 824q91.5 0 171.5 -34.5t139.5 -94.5t94.5 -140t35 -171t-35 -171q-35 -81 -94.5 -141
t-139.5 -94.5t-171.5 -34.5t-171.5 34.5t-140 94.5t-94 141q-35 80 -35 171t35 171q34 80 94 140t140 94.5t171.5 34.5z" />
    <glyph glyph-name="gouxuan" unicode="&#xe606;" 
d="M819 823h-613q-55 0 -93.5 -38.5t-38.5 -92.5v-613q0 -54 38.5 -92.5t93.5 -38.5h613q54 0 92.5 38.5t38.5 92.5v613q0 54 -38.5 92.5t-92.5 38.5zM928 79q0 -45 -32 -77t-77 -32h-613q-46 0 -78 32t-32 77v613q0 45 32 77t78 32h613q45 0 77 -32t32 -77v-613zM722.5 542
q-9.5 10 -23 10t-23.5 -10l-223 -243l-106 106q-9 10 -23 10t-23.5 -9.5t-9.5 -23t10 -23.5l128 -128l2 -2q10 -10 23.5 -10t23.5 10q5 5 7 12l237 255q10 9 10 22.5t-9.5 23.5z" />
    <glyph glyph-name="shang" unicode="&#xe607;" 
d="M951 187q0 -15 -10.5 -25.5t-25.5 -10.5t-25 11l-378 378l-378 -378q-10 -11 -25 -11t-25.5 10.5t-10.5 25.5t10 25l404 404q10 10 25 10t25 -10l404 -404q10 -10 10 -25z" />
    <glyph glyph-name="bianji" unicode="&#xe608;" 
d="M785 -59h-573q-39 0 -67 28t-28 68v636q0 40 28 68t67 28h446q13 0 22.5 -9.5t9.5 -22.5t-9.5 -22.5t-22.5 -9.5h-446q-13 0 -22.5 -9.5t-9.5 -22.5v-636q0 -14 9.5 -23t22.5 -9h573q14 0 23 9t9 23v509q0 13 9.5 22.5t22.5 9.5t22.5 -9.5t9.5 -22.5v-509q0 -40 -28 -68
t-68 -28v0zM598 450v0q-13 0 -22 9.5t-9 22.5t9 23l316 316q10 10 23 10t22.5 -9.5t9.5 -22.5t-10 -23l-316 -316q-9 -10 -23 -10zM467 450h-191q-13 0 -22.5 9.5t-9.5 22.5t9.5 22.5t22.5 9.5h191q13 0 22.5 -9.5t9.5 -22.5t-9.5 -22.5t-22.5 -9.5zM658 259h-382
q-13 0 -22.5 9.5t-9.5 22.5t9.5 22.5t22.5 9.5h382q13 0 22.5 -9.5t9.5 -22.5t-9.5 -22.5t-22.5 -9.5zM658 259z" />
    <glyph glyph-name="dianhua" unicode="&#xe609;" 
d="M512 829q-90 0 -171.5 -35t-140.5 -94t-93.5 -140.5t-34.5 -171t34.5 -171t93.5 -140.5t140.5 -94t171.5 -35t171.5 35t140 94t93.5 140.5t35 171t-35 171t-93.5 140.5t-140 94t-171.5 35zM805.5 95.5q-57.5 -57.5 -131.5 -89.5q-78 -32 -162 -32t-162 32
q-74 32 -131.5 89.5t-88.5 131.5q-33 77 -33 162q0 84 33 161q31 74 88.5 132t131.5 89q78 33 162 33t161 -33q75 -31 132.5 -88.5t88.5 -132.5q33 -77 33 -161.5t-33 -161.5q-31 -74 -88.5 -131.5zM457 488l-52 -53q22 -49 63 -91.5t88 -58.5l45 44q107 -18 131 -30
q29 -14 24 -60q-3 -29 -34 -62t-78 -34q-53 0 -122.5 36t-124.5 94q-62 66 -99 134t-30 127q4 29 17.5 50t31 31t30.5 14t23 5q28 2 44 -18q6 -8 17 -40t18 -60zM398 599q-12 16 -39 10q-10 -3 -22.5 -9.5t-27.5 -25t-18 -42.5q-6 -47 26 -114.5t91 -124.5
q123 -119 222 -128q23 -2 43 6t32 21t19 24.5t9 19.5q8 30 -9 42q-5 4 -34 11t-55 12l-26 5l-48 -47q-59 19 -108.5 69t-72.5 114l51 52l-1 5t-3.5 13.5t-5.5 19t-6.5 21.5t-6.5 20l-5.5 16.5t-4.5 9.5zM398 599z" />
    <glyph glyph-name="chakan" unicode="&#xe60a;" 
d="M945 39l-172 172q73 101 73 227q0 105 -52 194.5t-141 141.5t-194.5 52t-195 -52t-141.5 -141.5t-52 -195t52 -195t141.5 -141.5t194.5 -52q126 0 227 74l172 -172q9 -10 22 -10t22 10l44 44q9 9 9 21.5t-9 22.5zM181 437.5q0 114.5 81 196t196 81.5t196 -81.5t81 -196
t-81 -196t-196 -81.5t-196 81.5t-81 196zM181 438z" />
    <glyph glyph-name="daxiao" unicode="&#xe60b;" 
d="M512 832q-91 0 -174 -35.5t-143 -95.5t-95.5 -143t-35.5 -174t35.5 -174t95.5 -143t143 -95.5t174 -35.5t174 35.5t143 95.5t95.5 143t35.5 174t-35.5 174t-95.5 143t-143 95.5t-174 35.5zM866 235q-41 -97 -144.5 -165.5t-208.5 -68.5q-103 0 -191.5 51t-139.5 139.5
t-51 192t51 192t139.5 139.5t192 51t192 -51t139.5 -139.5t51 -192.5q0 -38 -8 -76q-7 -38 -22 -72zM384 512v0q13 0 22.5 9.5t9.5 22.5v64q0 13 -9.5 22.5t-22.5 9.5t-22.5 -9.5t-9.5 -22.5v-64q0 -13 9.5 -22.5t22.5 -9.5zM640 512v0q13 0 22.5 9.5t9.5 22.5v64
q0 13 -9.5 22.5t-22.5 9.5t-22.5 -9.5t-9.5 -22.5v-64q0 -13 9.5 -22.5t22.5 -9.5zM812 413q-6 3 -12 3v0h-2h-572h-2q-13 0 -22.5 -9.5t-9.5 -22.5v0v-2q1 -131 94.5 -224.5t225.5 -93.5q131 0 225 93t95 224v3q0 9 -5.5 17.5t-14.5 11.5zM693 203q-31 -31 -84 -53t-97 -22
q-94 0 -168 65.5t-86 158.5h508q-4 -36 -25.5 -79.5t-47.5 -69.5z" />
    <glyph glyph-name="jiazai" unicode="&#xe60c;" 
d="M534.5 592q-46.5 0 -79.5 33.5t-33 80t33 79.5t79.5 33t79.5 -33t33 -79.5t-33 -80t-79.5 -33.5zM294.5 503q-42.5 0 -73 30t-30.5 73t30.5 73t73 30t72.5 -30t30 -73t-30 -73t-72.5 -30zM192.5 270q-37.5 0 -64 26.5t-26.5 64t26.5 64.5t64 27t64 -27t26.5 -64.5
t-26.5 -64t-64 -26.5zM294 39q-32 0 -54.5 23t-22.5 54.5t22.5 54t54.5 22.5t54.5 -22.5t22.5 -54t-22.5 -54.5t-54.5 -23zM534 -49q-28 0 -47.5 20t-19.5 47.5t19.5 47.5t47.5 20t47.5 -20t19.5 -47.5t-19.5 -47.5t-47.5 -20zM778 65q-23 0 -38.5 16t-15.5 38.5t15.5 38
t38 15.5t38.5 -15.5t16 -38t-16 -38.5t-38 -16v0zM877.5 316q-18.5 0 -31.5 13t-13 31.5t13 31.5t31.5 13t31.5 -13t13 -31.5t-13 -31.5t-31.5 -13zM743 602.5q0 -14.5 10.5 -24.5t24.5 -10t24 10t10 24.5t-10 24.5t-24 10t-24.5 -10t-10.5 -24.5z" />
    <glyph glyph-name="shangyiye" unicode="&#xe60e;" 
d="M720 -40q11 11 11 26t-11 26l-377 373l375 378q11 11 11 26t-11 26t-26 10.5t-26 -10.5l-398 -403q-1 0 -1 -0.5t-1 -1.5v0v0q-11 -11 -11 -26t11 -25l402 -399q11 -11 26 -11t26 11v0zM720 -40z" />
    <glyph glyph-name="xiangxia" unicode="&#xe60f;" 
d="M473 152l-387 387q-16 16 -16 38.5t16 38.5t38.5 16t39.5 -16l348 -348l348 348q17 16 39.5 16t38.5 -16t16 -38.5t-16 -38.5l-387 -387q-16 -16 -39 -16t-39 16z" />
    <glyph glyph-name="shouji1" unicode="&#xe610;" 
d="M515.5 123q-18.5 0 -31.5 -13t-13 -31.5t13 -32t31.5 -13.5t32 13.5t13.5 32t-13.5 31.5t-32 13zM738 829h-444q-28 0 -48 -20t-20 -48v-745q0 -28 20 -47.5t48 -19.5h444q28 0 47.5 19.5t19.5 47.5v745q0 28 -19.5 48t-47.5 20zM294 783h444q9 0 15.5 -6.5t6.5 -15.5
v-558h-489v558q0 9 7 15.5t16 6.5zM738 -6h-444q-9 0 -16 6.5t-7 15.5v138h489v-138q0 -9 -6.5 -15.5t-15.5 -6.5z" />
    <glyph glyph-name="wudayoushi-zhuanye" unicode="&#xe611;" 
d="M962 384q0 92 -35.5 175t-96 143.5t-143.5 96t-175 35.5t-175 -35.5t-143.5 -96t-96 -143.5t-35.5 -175t35.5 -175t96 -143.5t143.5 -96t175 -35.5q150 0 271 92q5 6 5 13q0 8 -6 14t-14 6q-9 0 -14 -6h-1q-108 -80 -241 -80q-110 0 -204 54.5t-148.5 148.5t-54.5 205
t54.5 204.5t148.5 148t204.5 54.5t204.5 -54.5t148.5 -148t54.5 -204.5q0 -103 -46 -190v-1q-1 -4 -1 -6q0 -8 5.5 -13.5t14.5 -5.5q13 0 18 13v-1q51 99 51 207zM512 353q43 0 73.5 30.5t30.5 73.5t-30.5 73.5t-73.5 30.5t-73.5 -30.5t-30.5 -73.5t30.5 -73.5t73.5 -30.5z
M512 540q34 0 58.5 -24.5t24.5 -58.5t-24.5 -58.5t-58.5 -24.5t-58.5 24.5t-24.5 58.5t24.5 58.5t58.5 24.5zM306 206q3 -5 8 -5l65 -2l35 -53q3 -5 9 -5v0q6 0 9 5l77 138q1 1 1 3h1h1h1h1q0 -1 1 -2l77 -139q3 -5 9 -5v0v0q6 0 9 5l35 54l65 1q6 0 8.5 5t0.5 11l-75 133
q38 47 38 107q0 70 -50 120t-120 50t-120 -50t-50 -120q0 -60 38 -107l-75 -134q-2 -5 1 -10v0zM692 221l-53 -1q-5 0 -8 -4l-29 -45l-65 117q53 8 93 46zM363 457q0 62 43.5 105.5t105.5 43.5t105.5 -43.5t43.5 -105.5t-43.5 -105.5t-105.5 -43.5t-105.5 43.5t-43.5 105.5z
M395 334q39 -38 92 -46l-65 -117l-29 45q-3 4 -8 4l-53 1z" />
    <glyph glyph-name="xuexiao" unicode="&#xe612;" 
d="M514 696q13 0 31 -9l1 -1h1q42 -17 177 -70q136 -52 185 -72l-42 -18q-60 -24 -142 -58q-139 -57 -172 -72q-27 -12 -47 -12q-18 0 -44 9q-11 5 -23 9q-245 91 -337 135q-5 2 -10 5q4 2 8 3q54 21 193 72q118 44 158 60h1v0l1 1q46 18 61 18zM908 331l4 -4l5 -5l-13 -12
l-10 9zM726 318v-168q-19 -16 -43 -30.5t-72.5 -30t-101.5 -15.5q-56 0 -108.5 15.5t-77.5 30.5t-45 31v154q26 -9 83 -28q36 -12 57 -20q48 -16 95 -16q48 0 84 18q24 10 84 38q29 13 45 21zM513.5 737q-22.5 0 -76.5 -22q-41 -15 -170 -63t-181 -68q-38 -15 -49.5 -27.5
t0 -26t48.5 -30.5q81 -39 363 -145q32 -12 58 -12q29 0 64 15q24 11 313 131v-125l-48 -43l70 -70l69 72l-33 33v157q3 3 16 9t17 10t6.5 10.5t-8.5 15t-35 18.5q-50 21 -191.5 76t-182.5 72q-27 13 -49.5 13zM767 381q-36 -16 -99.5 -45.5t-88.5 -39.5q-27 -15 -66 -15
q-41 0 -82 15q-167 57 -194 68v-231q4 -4 11.5 -11t33.5 -24t55 -30t76 -24t96 -11q46 0 89.5 10.5t73 25t52 29t32.5 24.5l11 11v248z" />
    <glyph glyph-name="xuexiao1" unicode="&#xe613;" 
d="M359.5 239q-7.5 0 -12.5 5t-5 12v149q0 7 5 12.5t12.5 5.5t12.5 -5.5t5 -12.5v-149q0 -7 -5 -12t-12.5 -5zM508 182q-40 0 -88 17t-68 35q-10 11 -10 22q0 8 5 13t12 5q14 0 18 -14q10 -12 54.5 -27.5t80.5 -14.5q37 1 81.5 16t54.5 26q3 14 17 14q7 0 12.5 -5t5.5 -13
q0 -27 -62 -49.5t-108 -24.5h-5zM512 308q-4 0 -8 2l-240 126q-10 5 -10 15v0q0 11 10 16l240 126q4 2 8 2t8 -2l240 -126q10 -5 10 -15.5t-10 -15.5l-240 -126q-4 -2 -8 -2v0zM310 451l202 -105l202 105l-202 106zM664.5 239q-7.5 0 -12.5 5t-5 12v149q0 7 5 12.5t12.5 5.5
t13 -5.5t5.5 -12.5v-149q0 -7 -5.5 -12t-13 -5zM752.5 217q-7.5 0 -13 5t-5.5 13v216q0 8 5.5 13t13 5t12.5 -5t5 -13v-216q0 -8 -5 -13t-12.5 -5zM512 -58q-90 0 -172 35q-79 33 -140.5 94.5t-94.5 140.5q-35 82 -35 172t35 172q33 79 94.5 140.5t140.5 94.5q82 35 172 35
t172 -35q79 -33 140.5 -94.5t94.5 -140.5q35 -82 35 -172t-35 -172q-33 -79 -94.5 -140.5t-140.5 -94.5q-82 -35 -172 -35v0zM512 787q-109 0 -202 -54t-147 -147t-54 -202t54 -202t147 -147t202 -54t202 54t147 147t54 202t-54 202t-147 147t-202 54z" />
    <glyph glyph-name="yonghu" unicode="&#xe614;" 
d="M512 446q-78 0 -133 55t-55 133t55 133t133 55t133 -55t55 -133t-55 -133t-133 -55zM512 747q-47 0 -80 -33.5t-33 -80t33 -79.5t80 -33t80 33t33 79.5t-33 80t-80 33.5zM445 -51q-104 0 -169.5 11t-102.5 48q-36 35 -36 91t36 109q32 47 87 84q114 77 252 77t251 -77
q55 -37 87 -84q35 -53 35 -109t-36 -92q-21 -21 -52 -34t-77.5 -17.5t-79 -5.5t-95.5 -1h-33h-35h-32zM512 24h34q113 0 159 5q68 8 91 32q14 13 14 38q0 34 -23 68t-66 63q-94 64 -209 64q-72 0 -142 -28.5t-113.5 -74t-43.5 -92.5q0 -24 13 -38q18 -18 64 -26.5t83 -9.5
t105 -1h34v0z" />
    <glyph glyph-name="youxiang" unicode="&#xe615;" 
d="M511.5 829q-89.5 0 -171 -35t-140.5 -94t-94 -140.5t-35 -171t35 -171t94 -140.5t140.5 -94t171 -35t171 35t140.5 94t94 140.5t35 171t-35 171t-94 140.5t-140.5 94t-171 35zM805.5 95.5q-57.5 -57.5 -132.5 -89.5q-77 -32 -161.5 -32t-161.5 32q-74 32 -131.5 89.5
t-89.5 131.5q-32 77 -32 162q0 84 32 161q32 74 89.5 132t131.5 89q78 33 162 33t161 -33q75 -31 132.5 -88.5t88.5 -132.5q33 -77 33 -161.5t-33 -161.5q-31 -74 -88.5 -131.5zM260 559h10h485q5 0 7 -1.5t2 -7.5v-323q0 -9 -9 -9h-487q-9 0 -9 8q1 89 1 322v11zM299 537
l6 -6q145 -133 163 -150q16 -15 27 -23q18 -12 34 1q13 10 33 28q59 54 155 142q1 1 7 8h-425zM299 243q2 -2 2 -3h422q1 2 1 3q-8 6 -9 7q-104 95 -129 119q-7 6 -14 0q-19 -17 -35 -29q-25 -19 -50 0q-15 11 -36 29q-6 6 -12 0q-38 -35 -132 -120q-1 -1 -8 -6v0zM430 389
q-26 24 -75 69t-71 65v-269q27 25 76 70t70 65zM740 520q-1 0 -2 1q-124 -114 -144 -132q22 -21 71 -65.5t75 -69.5v266zM740 520z" />
    <glyph glyph-name="youxiang1" unicode="&#xe616;" 
d="M794 13h-566q-65 0 -111.5 46.5t-46.5 111.5v440q0 65 46.5 111.5t111.5 46.5h566q65 0 111.5 -46.5t46.5 -111.5v-440q0 -65 -46.5 -111.5t-111.5 -46.5zM228 706q-39 0 -67 -28t-28 -67v-440q0 -39 28 -67t67 -28h566q39 0 67 28t28 67v440q0 39 -28 67t-67 28h-566z
M511 274l-410 410l45 44l365 -365l365 365l45 -44z" />
    <glyph glyph-name="zhuanye" unicode="&#xe617;" 
d="M511.5 824q-89.5 0 -170.5 -35t-140 -94t-94 -140t-35 -170.5t35 -171t94 -140.5t140 -94t170.5 -35t171 35t140.5 94t94 140.5t35 171t-35 170.5t-94 140t-140.5 94t-171 35zM512 -7q-106 0 -196 52.5t-142.5 142.5t-52.5 196t52.5 196t142.5 142.5t196 52.5t196 -52.5
t142.5 -142.5t52.5 -196t-52.5 -196t-142.5 -142.5t-196 -52.5zM414 677h196l-49 -97h-98zM419 314l186 -136l29 35l-6 22l-192 140zM584 390l-48 165h-48l-23 -79zM413 294l-23 -81l122 -147l81 97zM459 456l-17 -61l177 -129l-26 93z" />
    <glyph glyph-name="zan" unicode="&#xe618;" 
d="M880 475h-235q19 68 25 125t2.5 92.5t-14 62.5t-22.5 40.5t-25.5 21.5t-20 9.5t-8.5 1.5q-22 0 -35 -8.5t-15.5 -18t-3.5 -20.5t-2 -13q0 -46 -18 -93t-43.5 -81.5t-51 -62.5t-43.5 -42l-18 -14v-467q0 -31 30.5 -47t56.5 -16h352q10 0 19.5 9t16.5 22t12.5 25.5
t8.5 21.5l3 9q39 133 61 231.5t24.5 121.5t2.5 33q0 17 -6.5 29.5t-15 17.5t-17 7.5t-14.5 2.5h-6zM255 474h-140q-13 0 -20.5 -7t-8.5 -14l-1 -7l29 -471q0 -13 7.5 -20.5t15.5 -8.5l7 -1h122q11 0 17.5 5t6.5 10l1 5v474q0 16 -9 25t-18 10h-9z" />
    <glyph glyph-name="zengjia" unicode="&#xe619;" 
d="M700 427h-150v150q1 0 1 1q0 16 -11.5 27.5t-27.5 11.5t-27.5 -11.5t-11.5 -27.5v-2v-149h-149q-15 0 -26 -11.5t-11 -27t11 -26.5t26 -12h149v-149v-2q0 -15 11.5 -26.5t27.5 -11.5t27 11.5t11 26.5v2v149h150h1q16 0 27.5 11.5t11.5 27.5t-11.5 27t-27.5 11h-1v0z
M834 832h-644q-50 0 -85.5 -35.5t-35.5 -85.5v-645q0 -50 35.5 -85t85.5 -35h644q50 0 85.5 35t35.5 85v0v645q0 50 -35.5 85.5t-85.5 35.5zM936 66v0q0 -42 -30 -71.5t-72 -29.5v0h-644v0q-42 0 -72 29.5t-30 71.5v0v645v0q0 42 30 72t72 30v0h644v0q42 0 72 -30t30 -72v0
v-645z" />
    <glyph glyph-name="zhuanye-" unicode="&#xe61a;" 
d="M506 -54q-26 0 -46 17l-167 151q-17 15 -11 36l134 474l-96 133q-11 14 -9 31.5t16 28.5q12 10 28 10h303q18 0 31 -13t13 -31q0 -14 -9 -26l-96 -133l133 -473q2 -5 2 -11q0 -15 -12 -26l-167 -151q-20 -17 -47 -17v0zM355 152l151 -137l151 137l-132 469q-5 16 5 30
l76 106h-200l76 -106q11 -15 5 -33zM469 274q-17 0 -28 14q-8 12 -6 26t14 23l74 55q11 9 25.5 7t23 -14t6.5 -26t-14 -23l-74 -55q-9 -7 -21 -7zM469 142q-17 0 -28 14q-8 12 -6 26t14 23l74 55q11 9 25.5 7t23 -13.5t6.5 -26t-14 -23.5l-74 -55q-9 -7 -21 -7z" />
    <glyph glyph-name="chenggong" unicode="&#xe61b;" 
d="M512 820q-89 0 -169.5 -34.5t-139 -92.5t-93 -139t-34.5 -169.5t34.5 -169t93 -139t139 -93t169.5 -34.5t169.5 34.5t139 93t93 139t34.5 169t-34.5 169.5t-93 139t-139 92.5t-169.5 34.5zM512 14q-101 0 -186 49.5t-134.5 135t-49.5 186t49.5 186t134.5 135t186 49.5
t186 -49.5t134.5 -135t49.5 -186t-49.5 -186t-134.5 -135t-186 -49.5zM737 507.5q0 -13.5 -10 -23.5l-245 -245q-10 -10 -23.5 -10t-22.5 10l-139 139q-10 9 -10 22.5t9.5 23t23 9.5t23.5 -9l116 -116l222 223q10 9 23.5 9t23 -9.5t9.5 -23z" />
    <glyph glyph-name="time" unicode="&#xe61c;" 
d="M825 701q-63 63 -143.5 96.5t-169.5 33.5t-169.5 -33.5t-143.5 -96t-96.5 -143.5t-33.5 -169.5t33.5 -169.5t96.5 -143.5t143.5 -96t169.5 -33.5t170 33.5t143 95.5q85 85 115.5 199t0 228.5t-115.5 198.5zM784 116q-54 -54 -124.5 -83.5t-147.5 -29.5t-147.5 29.5
t-125 84t-83.5 124.5t-29 147.5t29 147.5t83.5 124.5t125 83.5t147.5 29t147.5 -29t124.5 -83q74 -74 100.5 -173.5t0 -198.5t-100.5 -173zM703 280l-153 88v242q0 15 -10.5 26t-26 11t-26 -11t-10.5 -26v-258q0 -16 28 -32q2 -4 16 -12l153 -92q13 -7 26 -3.5t20 17.5
q8 13 2.5 27.5t-19.5 22.5z" />
    <glyph glyph-name="biaoge" unicode="&#xe61d;" 
d="M797 790q27 0 45.5 -18.5t18.5 -45.5v-617l7 15l-140 -143l15 7h-506q-26 0 -45 18.5t-19 44.5v759l-22 -21h646v1zM129 832v-781q0 -43 31.5 -74t76.5 -31h515l6 6l146 149v625q0 44 -31.5 75t-75.5 31h-668zM711 220q-27 0 -46 -18.5t-19 -44.5v-127q0 -9 6.5 -15
t15.5 -6t15 6t6 15v127q0 8 6.5 14.5t15.5 6.5h97q9 0 15.5 6t6.5 15t-6.5 15t-15.5 6h-97v0zM744 642q9 0 15.5 6t6.5 15t-6.5 15t-15.5 6h-443q-9 0 -15 -6t-6 -15t6 -15t15 -6h443zM744 515q9 0 15.5 6.5t6.5 15.5q0 8 -6.5 14.5t-15.5 6.5h-443q-9 0 -15 -6t-6 -15
t6 -15.5t15 -6.5h443zM744 367q9 0 15.5 6.5t6.5 15.5t-6.5 15t-15.5 6h-443q-9 0 -15 -6t-6 -15t6 -15.5t15 -6.5h443z" />
    <glyph glyph-name="bianjizhuanti" unicode="&#xe61e;" 
d="M414 679h-169q-70 0 -119.5 -49t-49.5 -119v-394q0 -70 49.5 -119.5t119.5 -49.5h394q70 0 119 49.5t49 119.5v169h-56v-169q0 -47 -33 -80t-79 -33h-394q-47 0 -80 33t-33 80v394q0 46 33 79t80 33h169v56zM808 808q-18 18 -39.5 18t-40.5 -18l-385 -385l-61 -220
q-5 -23 6 -34t34 -6l220 61l385 385q18 19 18 40.5t-18 39.5zM342 223l45 164l119 -119zM425 425l323 324q15 15 20.5 15t19.5 -15l80 -80q14 -15 14.5 -19.5t-14.5 -20.5l-324 -323z" />
    <glyph glyph-name="chenggong1" unicode="&#xe61f;" 
d="M927 732q13 22 6.5 47t-30.5 39q-22 13 -47 6.5t-39 -30.5l-397 -690l-223 206q-19 19 -44 20t-45 -17q-18 -18 -19 -43t16 -45l285 -264q19 -18 43.5 -19t45.5 17q3 3 115.5 196.5t222.5 385z" />
    <glyph glyph-name="bianji1" unicode="&#xe620;" 
d="M768 -52h-565q-39 0 -66.5 27.5t-27.5 66.5v627q0 39 27.5 66.5t66.5 27.5h439q13 0 22 -9.5t9 -22t-9 -22t-22 -9.5h-439q-13 0 -22 -9t-9 -22v-627q0 -13 9 -22t22 -9h565q12 0 21.5 9t9.5 22v501q0 13 9 22.5t22 9.5t22.5 -9.5t9.5 -22.5v-501q0 -39 -28 -66.5
t-66 -27.5v0zM583 449v0q-13 0 -22 9.5t-9 22.5t9 22l312 311q9 10 22 10t22 -9.5t9 -22.5t-9 -22l-311 -311q-10 -10 -23 -10zM454 449h-188q-13 0 -22 9.5t-9 22.5t9 22t22 9h188q13 0 22 -9t9 -22t-9 -22.5t-22 -9.5zM642 261h-376q-13 0 -22 9.5t-9 22.5t9 22t22 9h376
q13 0 22 -9t9 -22t-9 -22.5t-22 -9.5zM642 261z" />
    <glyph glyph-name="guanli" unicode="&#xe621;" 
d="M393 788h-304q-13 0 -22 -9t-9 -22v-322q0 -13 9 -22t22 -9h304q13 0 22 9t9 22v322q0 13 -9 22t-22 9zM363 465h-244v262h244v-262zM393 300h-304q-13 0 -22 -8.5t-9 -21.5v-304q0 -13 9 -22t22 -9h304q13 0 22 9t9 22v304q0 13 -9 21.5t-22 8.5zM363 -4h-244v244h244
v-244zM880 300h-304q-13 0 -22 -8.5t-9 -21.5v-304q0 -13 9 -22t22 -9h304q13 0 22 9t9 22v304q0 13 -9 21.5t-22 8.5zM850 -4h-244v244h244v-244zM963 624l-215 216q-9 8 -22 8t-22 -8l-215 -216q-9 -9 -9 -21.5t9 -21.5l215 -215q9 -9 22 -9t22 9l215 215q9 9 9 21.5
t-9 21.5zM726 430l-172 173l172 172l172 -172z" />
    <glyph glyph-name="fujian" unicode="&#xe622;" 
d="M881 451v0l-325 321q-9 9 -21 9t-20.5 -8.5t-8.5 -20.5t8 -21l328 -323q0 -1 1 -1q61 -62 60 -149t-63 -149q-63 -62 -152.5 -62t-152.5 62v0v0l-374 369q-40 40 -40 96t40 95.5t97 39.5t97 -39v0v0l387 -382l1 -1v0q17 -17 17 -41t-17 -41t-41.5 -17t-41.5 17v0l-1 1
l-280 276q-9 8 -21 8t-20.5 -8.5t-8.5 -20.5t8 -20l280 -276l1 -1q35 -34 83.5 -34t83 34t34.5 82t-35 82v0q-4 4 -9 7l-379 376v0v0l-6 7q-6 5 -13 7q-51 46 -127.5 42.5t-130.5 -56.5q-54 -54 -57 -129.5t47 -132.5q4 -6 10 -10v-2v0v0l374 -369q5 -4 11 -6
q48 -49 116.5 -66t138.5 2t122 70q81 80 81 192t-81 191z" />
    <glyph glyph-name="huifu" unicode="&#xe623;" 
d="M289 512q-23 0 -39.5 -17t-16.5 -41t16.5 -40.5t39.5 -16.5t39.5 16.5t16.5 40.5t-16.5 41t-39.5 17zM512 512q-23 0 -39.5 -17t-16.5 -41t16.5 -40.5t39.5 -16.5t39.5 16.5t16.5 40.5t-16.5 41t-39.5 17zM735 512q-23 0 -39.5 -17t-16.5 -41t16.5 -40.5t39.5 -16.5
t39.5 16.5t16.5 40.5t-16.5 41t-39.5 17zM847 801h-670q-46 0 -78.5 -33.5t-32.5 -81.5v-434q0 -49 33.5 -86t80.5 -37h170q13 -14 51 -53.5t69.5 -72l31.5 -32.5q10 -10 20 0q90 102 148 158h174q47 0 80.5 37t33.5 86v434q0 48 -32.5 81.5t-78.5 33.5zM902 252
q0 -25 -17.5 -45t-40.5 -20h-171q-9 0 -19 -5.5t-15 -10.5l-5 -6l-120 -124l-121 124q-22 22 -42 22h-171q-23 0 -40.5 20t-17.5 45v434q0 24 16 41t39 17h670q23 0 39 -17t16 -41v-434zM902 252z" />
    <glyph glyph-name="pinglun" unicode="&#xe624;" 
d="M294 514q-22 0 -38 -16.5t-16 -39.5t16 -39.5t38 -16.5t38 16.5t16 39.5t-16 39.5t-38 16.5zM511 514q-22 0 -38 -16.5t-16 -39.5t16 -39.5t38 -16.5t38 16.5t16 39.5t-16 39.5t-38 16.5zM728.5 514q-22.5 0 -38.5 -16.5t-16 -39.5t16 -39.5t38.5 -16.5t38 16.5
t15.5 39.5t-15.5 39.5t-38 16.5zM837 796h-652q-44 0 -76 -33t-32 -80v-422q0 -47 33 -83t78 -36h165q6 -7 17.5 -18.5t25 -25.5t28.5 -29.5t28.5 -30t24.5 -26t17.5 -18l6.5 -6.5q10 -10 20 0q87 99 144 154h169q45 0 78 36t33 83v422q0 47 -32 80t-76 33zM891 261
q0 -24 -17 -43.5t-40 -19.5h-166q-9 0 -18.5 -5.5t-15.5 -10.5l-5 -5l-116 -121l-117 121q-23 21 -42 21h-166q-23 0 -40 19.5t-17 43.5v422q0 24 16 40.5t38 16.5h652q22 0 38 -16.5t16 -40.5v-422z" />
    <glyph glyph-name="quxiao" unicode="&#xe625;" 
d="M581 391l336 -341q17 -16 25.5 -29t8 -28.5t-14.5 -29.5t-29.5 -14.5t-28.5 8t-29 24.5l-330 345l-346 -347q-17 -16 -30 -24.5t-29 -8t-30 14.5t-14 29.5t8.5 28.5t24.5 30l339 343l-337 333q-16 16 -24.5 29t-8 28.5t14.5 29.5t29.5 14.5t28.5 -8t29 -24.5l344 -330
l334 334q17 17 30 25t29 8t30 -14q10 -11 13 -22t-2.5 -22.5t-13 -21.5t-20.5 -23z" />
    <glyph glyph-name="jianliguanli" unicode="&#xe626;" 
d="M560 68q-105 0 -196 11q-111 12 -178 40q-91 37 -99 102q-2 9 3.5 15.5t14 8t15.5 -4t8 -13.5q5 -39 67 -66.5t174 -40.5q108 -13 229 -10l238 494q-67 4 -90 22l25 33h-1q23 -14 98 -14q9 0 15 -6.5t6 -14.5q0 -5 -2 -9l-257 -534q-5 -12 -18 -12q-20 -1 -52 -1z
M683 -62h-2t-7 1q-156 12 -274 38q-230 49 -294 140q-36 51 -19 112q2 9 9.5 13t16 2t12.5 -9.5t2 -16.5q-12 -42 13 -77q54 -78 268 -124q114 -24 262 -36l220 487q-51 5 -85 21q-8 3 -11 11t0.5 16t11.5 11t16 -1q41 -18 99 -18h1v0q8 0 14 -6t6 -15q0 -4 -2 -9l-239 -528
q-5 -12 -18 -12zM346 180q-124 0 -243 24q-17 3 -17 20q0 5 3 10l262 503q6 11 18 11h3q26 -4 75 -4q85 0 165 16q109 20 193 67q5 3 10 3q9 0 15 -6t6 -15q0 -4 -2 -8l-241 -554q-3 -6 -8 -9q-67 -58 -239 -58zM139 239q111 -18 207 -18q152 0 211 47l217 497
q-71 -30 -154.5 -46t-172.5 -16q-35 0 -66 2zM390 511q4 1 15.5 3.5t19.5 5.5t10 10q1 3 4 9t2.5 6t-1.5 5q-7 5 -11 17.5t0 22.5q5 13 8 19.5t11 17.5t20 16t29 6q34 1 49 -16t3 -49q-5 -14 -11.5 -23.5t-9 -11.5t-10.5 -7q-6 -4 -7.5 -6.5t-5.5 -13.5q-4 -14 38 -14
q20 0 25.5 -10t-1.5 -33l-21 -32q-9 -9 -22 -16.5t-24 -12.5t-27.5 -9t-27 -6t-29 -3t-27.5 -1.5t-28 0.5t-24 1t-23 1.5t-19 1.5q27 49 41 75q13 23 21 30t33 17zM533 377q-4 -2 -29 -14q-14 -6 -18 -11q-8 -10 -15 -9q-5 1 -5 6t-3 7q-2 1 -24 -3q-18 -3 -23 -12
q0 -1 -2 -4.5t-3 -5l-3 -4.5t-3.5 -4t-4 -2.5t-5 -1t-5.5 1.5q-5 3 -3 13.5t-4 12.5q-6 3 -15.5 1.5t-13.5 -6.5q-3 -3 -6.5 -9.5t-7 -11t-8.5 -6.5q-9 -4 -13.5 2t-2.5 14q0 2 2 6.5t2.5 7t-1 5t-5.5 2.5q-3 1 -9.5 2t-10.5 1.5t-9 -0.5t-7 -4q0 -1 -11 -24
q-19 -37 -22 -43q1 1 6.5 0t12 -2t7.5 -1q4 0 8 3t8 7.5t6 6.5q6 4 14 5.5t14 -1.5q3 -3 5 -12t9 -11q4 1 5.5 -0.5t5 1.5t4.5 4t3.5 5t3.5 4q5 7 12.5 8.5t13.5 -3.5q2 -2 3.5 -6.5t2.5 -6.5q4 -4 14 -3q4 0 8 2t6 4.5l6 7.5t5 6q0 1 2 3.5t3 3.5l3.5 3.5l3.5 3.5t3.5 2.5
t4 0.5t4.5 -1q3 -2 7 -8.5t9 -8.5q10 -3 22 3q9 5 15 18q8 16 28 55z" />
    <glyph glyph-name="shanchu" unicode="&#xe627;" 
d="M344.5 109q11.5 0 19.5 8.5t8 19.5v307q0 12 -8 20t-19.5 8t-19.5 -8t-8 -20v-307q0 -11 8 -19.5t19.5 -8.5zM511.5 109q11.5 0 20 8.5t8.5 19.5v307q0 12 -8.5 20t-20 8t-19.5 -8t-8 -20v-307q0 -11 8 -19.5t19.5 -8.5zM679.5 109q11.5 0 19.5 8.5t8 19.5v307
q0 12 -8 20t-19.5 8t-20 -8t-8.5 -20v-307q0 -11 8.5 -19.5t20 -8.5zM819 751h-116q-9 37 -39 60.5t-68 23.5h-168q-38 0 -68 -23.5t-39 -60.5h-116q-46 0 -79 -32.5t-33 -79.5v-27h28v-28h56v-530q0 -47 32.5 -79.5t79.5 -32.5h446q46 0 79 32.5t33 79.5v530h55v28h28v27
q0 47 -32.5 79.5t-78.5 32.5zM428 779h168q31 0 48 -28h-264q16 28 48 28zM791 54q0 -24 -16.5 -40t-39.5 -16h-446q-24 0 -42 16.5t-18 39.5l4 530h558v-530zM149 639q0 24 16.5 40t39.5 16h614q23 0 39.5 -16t16.5 -40h-726z" />
    <glyph glyph-name="shangchuan" unicode="&#xe628;" 
d="M540 167h-56q-11 0 -19 -8t-8 -19.5t8 -19.5t19 -8h56q11 0 19 8t8 19.5t-8 19.5t-19 8zM512 832q-90 0 -172 -35.5t-141.5 -94.5t-94.5 -141t-35 -172t35 -172t94.5 -141.5t141.5 -94.5t172 -35t172 35t141.5 94.5t94.5 141.5t35 172t-35 172t-94.5 141t-141.5 94.5
t-172 35.5zM512 1q-105 0 -194.5 52t-141.5 141t-52 194.5t52 195t141.5 141t194.5 51.5t194.5 -51.5t141.5 -141t52 -195t-52 -194.5t-141.5 -141t-194.5 -52v0zM538 597q-10 12 -25 12t-26 -12l-129 -149q-13 -15 -11 -36q2 -10 9.5 -16.5t17.5 -6.5h83v-139q0 -11 8 -19
t19 -8h56q11 0 19 8t8 19v139h84q10 0 18 6.5t9 16.5q3 21 -10 36z" />
    <glyph glyph-name="tianjia" unicode="&#xe629;" 
d="M579 12q0 -28 -19.5 -48t-47.5 -20t-47.5 20t-19.5 48v745q0 28 19.5 48t47.5 20t47.5 -20t19.5 -48v-745zM885 452q28 0 47.5 -20t19.5 -47.5t-19.5 -47.5t-47.5 -20h-746q-28 0 -47.5 20t-19.5 47.5t19.5 47.5t47.5 20h746z" />
    <glyph glyph-name="shangchuan1" unicode="&#xe62a;" 
d="M955 93v-29q0 -49 -34.5 -83.5t-83.5 -34.5h-650q-49 0 -83.5 34.5t-34.5 83.5v148q0 12 8.5 20.5t20.5 8.5t21 -8.5t9 -20.5v-148q0 -25 17 -42t42 -17h650q25 0 42 17t17 42v148q0 12 8.5 20.5t21 8.5t21 -8.5t8.5 -20.5v-119zM846 427l-304 304v-520q0 -12 -9 -20.5
t-21 -8.5t-21 8.5t-9 20.5v519l-304 -305q-9 -9 -21.5 -9t-21 8.5t-8.5 21t9 21.5l352 352l1 1.5t2 2.5v1h0.5h1.5q7 7 17 8h2h2q10 -1 17 -8h1.5h0.5l355 -356q9 -8 9 -20.5t-8.5 -21t-21 -8.5t-21.5 9z" />
    <glyph glyph-name="wanshanxinxi" unicode="&#xe62b;" 
d="M102 390v301q0 65 36.5 102t101.5 38h551q64 -1 101 -38.5t37 -101.5v-355q0 -19 -2 -22q-16 -19 -25.5 -17.5t-23.5 21.5q-1 1 -1 20v176.5v176.5q0 88 -89 88q-297 1 -547 0q-42 0 -64.5 -22t-22.5 -63v-610q0 -87 88 -87h113.5h113.5t37 -26q0 -26 -38 -26
q-179 -1 -231 0q-60 0 -97 37t-38 97v311v0zM696 9q-9 -12 -13 -19h33q-12 15 -15 20q32 33 33 35q117 121 144 149q25 25 43 5q17 -19 -5 -42q-19 -20 -87 -90t-105 -109q-13 -13 -23 -13t-24 12q-13 11 -36.5 31.5t-32.5 29.5q-24 20 -6 40q17 19 40 -1q5 -4 54 -48v0z
M515 575h-166q-37 0 -35 27q2 25 35 25h166h166q18 0 28 -7t8 -20q-3 -26 -35 -25h-167zM514 366h-166q-36 0 -34 26q1 25 33 25h337q31 0 33 -26q1 -12 -8 -18.5t-26 -6.5h-169zM408 155h-32h-33q-29 0 -29 26t30 26q58 1 132 0q30 0 29.5 -26t-29.5 -26h-68z" />
    <glyph glyph-name="xiugaimima" unicode="&#xe62c;" 
d="M789 -59h-552q-41 0 -70.5 32.5t-29.5 78.5v277q0 46 29.5 78t70.5 32v83q0 127 81 216t195 89t195 -89t81 -216v-1h-1q0 -11 -7.5 -18.5t-17 -7.5t-17 7.5t-7.5 18.5v0v1q0 104 -66.5 177t-159.5 73t-159.5 -73t-66.5 -177v-83h502q41 0 70.5 -32.5t29.5 -77.5v-277
q0 -46 -29.5 -78.5t-70.5 -32.5zM839 329q0 23 -15 39t-35 16h-552q-20 0 -35 -16t-15 -39v-277q0 -23 15 -39.5t35 -16.5h552q20 0 35 16.5t15 39.5v277v0zM538 168v-89q0 -11 -7.5 -19t-17.5 -8t-17.5 8t-7.5 19v89q-22 9 -36 30t-14 48q0 34 22 58.5t53 24.5t53 -24.5
t22 -58.5q0 -27 -14 -48t-36 -30zM513 273q-10 0 -17.5 -8t-7.5 -19.5t7.5 -19.5t17.5 -8t17.5 8t7.5 19.5t-7.5 19.5t-17.5 8zM513 273z" />
    <glyph glyph-name="yanjing" unicode="&#xe62d;" 
d="M512 162q57 0 128 26.5t127 62t96.5 70.5t46.5 52q-2 20 -39 58t-92 77t-128.5 67.5t-138.5 28.5q-84 0 -179.5 -39.5t-157.5 -94t-62 -98.5q2 -17 40 -51t93 -70t129 -62.5t137 -26.5zM512 117q-66 0 -146.5 28.5t-144.5 68.5t-108 84t-44 74q0 61 72.5 127t176.5 108
t194 42q71 0 153 -32t144 -76t104 -91t42 -78q0 -25 -45 -68.5t-109.5 -84.5t-145 -71.5t-143.5 -30.5zM512 117zM512 272q46 0 78.5 32.5t32.5 78.5t-32.5 78.5t-78.5 32.5t-78.5 -32.5t-32.5 -78.5t32.5 -78.5t78.5 -32.5zM512 228q-64 0 -109.5 45.5t-45.5 109.5
t45.5 109.5t109.5 45.5t109.5 -45.5t45.5 -109.5t-45.5 -109.5t-109.5 -45.5zM512 228z" />
    <glyph glyph-name="xueshengguanli" unicode="&#xe62e;" 
d="M435 -45h-3q-139 10 -225 57.5t-86 114.5q0 60 70 105t188 62v4q-54 41 -85 107.5t-31 140.5q0 68 14 119.5t36.5 82t54.5 49.5t62.5 25.5t65 6.5t65 -6.5t62.5 -25.5t54 -49.5t36.5 -82t14.5 -119.5q0 -103 -57 -185q-7 -11 -19.5 -13t-22.5 5t-12 19t5 22q46 68 46 152
q0 58 -11 100.5t-27.5 65.5t-41.5 36.5t-46 17.5t-47 4t-47 -4t-45.5 -17.5t-41 -36.5t-28 -65.5t-11.5 -100.5q0 -63 28.5 -120t74.5 -87q13 -9 13 -25v0v-46q0 -12 -7.5 -20.5t-18.5 -9.5q-103 -11 -167 -44t-64 -67q0 -36 71.5 -70.5t184.5 -42.5q12 -1 20 -10.5t7 -21.5
t-9.5 -19.5t-19.5 -7.5v0zM676 81v0q-12 0 -20.5 8.5t-8.5 21t8 21.5l198 197q9 9 21 9t21 -8.5t9 -21t-9 -21.5l-198 -197q-8 -9 -21 -9v0v0zM676 81zM801 -63h-198q-33 0 -56.5 23.5t-23.5 56.5v222q0 33 23.5 57t56.5 24h110q12 0 20.5 -9t8.5 -21.5t-8.5 -21t-20.5 -8.5
h-110q-8 0 -14.5 -6t-6.5 -15v-222q0 -8 6.5 -14.5t14.5 -6.5h198q9 0 15 6.5t6 14.5v119q0 12 9 21t21 9t21 -9t9 -21v-119q0 -33 -24 -56.5t-57 -23.5v0zM801 -63z" />
    <glyph glyph-name="zuihouye" unicode="&#xe62f;" 
d="M307 828h-202l438 -427l-438 -461h202l438 461zM767 828h152v-888h-152v888z" />
    <glyph glyph-name="chakan1" unicode="&#xe630;" 
d="M953 -57q-7 -6 -14.5 -6t-12.5 6l-173 174l26 26l174 -170q9 -15 0 -30zM458 43q-107 0 -197.5 53t-143.5 144t-53 198t53 197.5t143.5 143.5t197.5 53t198 -53t144 -143.5t53 -197.5t-53 -198t-144 -144t-198 -53zM458 796q-98 0 -180 -48t-129.5 -130t-47.5 -179
q0 -98 48 -181t130 -131t179 -48q98 0 181 48t131 131t48 181t-48 180t-131 129.5t-181 47.5zM953 -57q-7 -6 -14.5 -6t-12.5 6l-173 174l26 26l174 -170q9 -15 0 -30zM458 43q-107 0 -197.5 53t-143.5 144t-53 198t53 197.5t143.5 143.5t197.5 53t198 -53t144 -143.5
t53 -197.5t-53 -198t-144 -144t-198 -53zM458 796q-98 0 -180 -48t-129.5 -130t-47.5 -179q0 -98 48 -181t130 -131t179 -48q98 0 181 48t131 131t48 181t-48 180t-131 129.5t-181 47.5z" />
    <glyph glyph-name="vr_video" unicode="&#xe631;" 
d="M512 832q-90 0 -172 -35.5t-141.5 -94.5t-94.5 -141t-35 -172t35 -172t94.5 -141.5t141.5 -94.5t172 -35t172 35t141.5 94.5t94.5 141.5t35 172t-35 172t-94.5 141t-141.5 94.5t-172 35.5zM511.5 765q146.5 0 254.5 -99t121 -243q-14 32 -46.5 66t-79.5 64.5t-113 50
t-136 19.5q-68 0 -133.5 -20t-113 -50t-81 -64.5t-47.5 -65.5q13 144 120.5 243t254 99zM697 388.5q0 -79.5 -54 -135.5t-130.5 -56t-130.5 56t-54 135.5t54 135.5t130.5 56t130.5 -56t54 -135.5zM512 12q-147 0 -254.5 99t-120.5 244q14 -32 47.5 -66t81 -64.5t113 -50
t133.5 -19.5q70 0 135.5 19.5t113 50.5t80 65t46.5 65q-13 -144 -120.5 -243.5t-254.5 -99.5zM450 396q-2 -9 -6.5 -26.5t-6.5 -26.5h-1q-3 9 -7 26.5t-6 26.5l-19 76h-43l50 -167h48l51 167h-41zM568 364h19l31 -59h45l-37 66q28 14 28 49q0 52 -65 52h-62v-167h41v59v0z
M568 441h18q29 0 29 -21q0 -24 -29 -24h-18v45z" />
    <glyph glyph-name="changjing" unicode="&#xe632;" 
d="M180 477q-28 0 -47.5 19.5t-19.5 47.5v177q0 27 19.5 46.5t47.5 19.5h177q27 0 46.5 -19.5t19.5 -46.5v-177q0 -28 -19.5 -47.5t-46.5 -19.5h-177zM468 544v177q0 46 -32.5 78.5t-78.5 32.5h-177q-46 0 -78.5 -32.5t-32.5 -78.5v-177q0 -46 32.5 -78.5t78.5 -32.5h177
q46 0 78.5 32.5t32.5 78.5zM844 477h-177q-27 0 -47 19.5t-20 47.5v177q0 27 20 46.5t47 19.5h177q27 0 46.5 -19.5t19.5 -46.5v-177q0 -28 -19.5 -47.5t-46.5 -19.5zM955 721q0 46 -32.5 78.5t-78.5 32.5h-177q-46 0 -78.5 -32.5t-32.5 -78.5v-177q0 -46 32.5 -78.5
t78.5 -32.5h177q46 0 78.5 32.5t32.5 78.5v177zM357 -10h-177q-28 0 -47.5 19.5t-19.5 47.5v177q0 27 19.5 46.5t47.5 19.5h177q27 0 46.5 -19.5t19.5 -46.5v-177q0 -28 -19.5 -47.5t-46.5 -19.5v0zM468 234q0 45 -32.5 77.5t-78.5 32.5h-177q-46 0 -78.5 -32.5t-32.5 -77.5
v-177q0 -46 32.5 -78.5t78.5 -32.5h177q46 0 78.5 32.5t32.5 78.5v177zM667 -10q-27 0 -47 19.5t-20 47.5v177q0 27 20 46.5t47 19.5h177q27 0 46.5 -19.5t19.5 -46.5v-177q0 -28 -19.5 -47.5t-46.5 -19.5h-177v0zM955 57v177q0 45 -32.5 77.5t-78.5 32.5h-177
q-46 0 -78.5 -32.5t-32.5 -77.5v-177q0 -46 32.5 -78.5t78.5 -32.5h177q46 0 78.5 32.5t32.5 78.5z" />
    <glyph glyph-name="bofang" unicode="&#xe633;" 
d="M512 823q-89 0 -170.5 -35t-140 -93.5t-93.5 -140t-35 -170.5t35 -170.5t93.5 -140t140 -93.5t170.5 -35t170.5 35t140 93.5t93.5 140t35 170.5t-35 170.5t-93.5 140t-140 93.5t-170.5 35zM512 0q-104 0 -192.5 51.5t-140 140t-51.5 192.5t51.5 192.5t140 140t192.5 51.5
t192.5 -51.5t140 -140t51.5 -192.5t-51.5 -192.5t-140 -140t-192.5 -51.5v0zM512 0zM710 418l-240 147l-3 2q-20 8 -41 8q-25 0 -40.5 -15.5t-15.5 -41.5v-279l2 -4q5 -15 19 -28t35 -13q15 0 32 9l240 136q15 10 21 28t-5 45zM432 251q-3 -2 -6 -2l-1 1v268v2q8 1 19 -3
l220 -135zM432 251z" />
    <glyph glyph-name="changjing1" unicode="&#xe634;" 
d="M846 473h-534l536 182q26 8 38.5 31.5t4.5 48.5l-14 46q-6 20 -23 33t-38 13q-9 0 -18 -3h-1l-647 -219q-25 -8 -37.5 -31.5t-4.5 -48.5l13 -46q6 -19 22 -32q-13 -17 -13 -38v-406q0 -27 19 -45.5t45 -18.5h652q26 0 45 18.5t19 45.5v406q0 27 -19 45.5t-45 18.5z
M862 409v-64h-188l65 80h107q6 0 11 -4.5t5 -11.5zM194 425h164l-72 -71q-5 -6 -7 -13l-101 4v64q0 7 5 11.5t11 4.5zM420 420q5 5 7 11l250 -6l-59 -73q-4 -5 -5 -12l-268 5zM165 559v0l647 220h4q12 0 15 -11l14 -47q2 -6 -1 -12t-10 -8v0l-647 -219q-2 -1 -4 -1
q-12 0 -16 12l-13 46q-2 6 1 12t10 8zM846 -13h-652q-6 0 -11 4.5t-5 11.5v294h684v-294q0 -7 -5 -11.5t-11 -4.5z" />
    <glyph glyph-name="vr" unicode="&#xe635;" horiz-adv-x="1025" 
d="M284 539q-42 0 -71.5 -29.5t-29.5 -71.5t29.5 -71.5t71.5 -29.5v0q41 0 70.5 29.5t29.5 71.5t-29.5 71.5t-70.5 29.5v0zM284 380q-24 0 -40.5 17t-16.5 40.5t16.5 40.5t40.5 17t40.5 -17t16.5 -40.5t-16.5 -40.5t-40.5 -17zM732.5 539q-41.5 0 -71 -29.5t-29.5 -71.5
t29.5 -71.5t71 -29.5t71 29.5t29.5 71.5t-29.5 71.5t-71 29.5zM733 380q-24 0 -40.5 17t-16.5 40.5t16.5 40t40.5 16.5t40.5 -16.5t16.5 -40t-16.5 -40.5t-40.5 -17zM869 683h-715q-44 0 -75 -31.5t-31 -74.5v-366q0 -44 31.5 -75t75.5 -31h125v0q48 2 77 41l-1 -1l114 155
l1 -1q17 21 43 21t43 -21h1l50 -68v0l60 -82v0q30 -44 83 -44h1v0h117q44 0 75.5 31t31.5 75v366q0 43 -31.5 74.5t-74.5 31.5h-1zM933 211q0 -26 -18.5 -44.5t-45.5 -18.5h-116v0h-0.5h-0.5q-27 0 -43 20h-1l-116 158v0q-31 38 -79 38q-49 0 -80 -40v0l-109 -151l-1 1
q-16 -25 -45 -26h1h-2h-1v0h-122q-26 0 -44.5 18.5t-18.5 44.5v365q0 27 18.5 45.5t44.5 18.5h715q27 0 45.5 -18.5t18.5 -45.5v-365v0z" />
    <glyph glyph-name="douban" unicode="&#xe636;" 
d="M321 594h386v-43h-386v43zM643 312l-46 17q-18 -50 -42 -91h-81q-20 54 -45 91l-43 -17q27 -39 43 -74h-119v-43h408v43h-114q21 32 39 74zM673 336v170h-318v-170h318zM401 462h226v-83h-226v83zM513 829q-90 0 -171.5 -35.5t-141 -94.5t-94.5 -140.5t-35 -171
t35 -171.5t94.5 -141t141 -94t171.5 -35t171.5 35t140.5 94t94 141t35 171.5t-35 171t-94 140.5t-140.5 94.5t-171.5 35.5zM513 -29q-113 0 -209 56t-151.5 151.5t-55.5 208.5t55.5 209t151.5 151.5t209 55.5t209 -55.5t151.5 -151.5t55.5 -209t-55.5 -208.5t-151.5 -151.5
t-209 -56z" />
    <glyph glyph-name="gantanhao" unicode="&#xe637;" 
d="M450 15q0 -26 18 -44t44 -18t44 18t18 44t-18 44t-44 18t-44 -18t-18 -44zM592 745q0 33 -23.5 56.5t-56.5 23.5t-56.5 -23.5t-23.5 -56.5v-5v0l18 -508q0 -26 18 -44.5t44 -18.5t44 18.5t18 44.5l18 508v0v5z" />
    <glyph glyph-name="douban1" unicode="&#xe638;" 
d="M761 602h-246h-252q-61 -1 -91 -31t-31 -92q-1 -68 0 -110q2 -55 31.5 -85t82.5 -31q250 -1 513 0q52 1 82 29.5t33 80.5q2 52 0 121q-4 117 -122 118zM795 395q-1 -30 -13 -42t-41 -13q-14 0 -163 -1h-68q-199 0 -215 1q-41 0 -53.5 13t-13.5 55q-1 44 0 58
q2 25 13.5 36.5t36.5 11.5q230 2 466 1q27 -1 38.5 -13t12.5 -39q2 -33 0 -68zM885 55q-20 1 -63 0.5t-63 0.5q-2 0 -36 5q20 39 22 41q3 6 6.5 12t7.5 13.5t7 11.5q17 30 -3 53q-15 20 -36 17t-37 -27q-25 -39 -58 -100q-15 -28 -45 -27q-65 2 -152 0q-28 0 -42 24
q-24 45 -55 96q-28 46 -63 29q-40 -20 -14 -71q3 -5 44 -78h-110h-74q-44 -3 -46 -41q-1 -19 11.5 -31t35.5 -14h37h702h21q65 1 67 42q1 44 -64 44zM187 712h325h209q119 0 136 1q24 1 36 13t11 32q-2 36 -46 41h-21h-649q-36 0 -52.5 -11t-15.5 -35q1 -21 16.5 -30.5
t50.5 -10.5z" />
    <glyph glyph-name="gantanhao1" unicode="&#xe639;" 
d="M622 738l-41 -561q-1 -12 -10 -20.5t-20 -8.5h-78q-11 0 -20 8.5t-10 20.5l-41 561q-3 33 10 57t33 24h134q20 0 33 -24t10 -57zM552 790h-82q-6 0 -10.5 -1.5t-7.5 -4t-5 -5t-3.5 -8t-2 -9t-0.5 -10.5t0.5 -11t1 -13t0.5 -13l25 -508q1 -11 6.5 -19t12.5 -8h48
q7 0 12.5 8t6.5 19l25 508q1 21 0.5 38t-7.5 27t-20 10zM470 98h83q13 0 22.5 -9.5t9.5 -23.5v-84q0 -13 -9.5 -22.5t-22.5 -9.5h-83q-14 0 -23.5 9.5t-9.5 22.5v84q0 14 9.5 23.5t23.5 9.5zM463 4q0 -14 9.5 -23.5t22.5 -9.5h36q13 0 22.5 9.5t9.5 23.5v35q0 14 -9.5 23.5
t-22.5 9.5h-36q-13 0 -22.5 -9.5t-9.5 -23.5v-35z" />
    <glyph glyph-name="didian" unicode="&#xe63a;" 
d="M512 -66q-11 0 -17 8q-257 337 -257 338l-4 4l-1 1l-2 4q-64 89 -64 199q0 143 101 244t244 101t243.5 -101t100.5 -244q0 -110 -63 -200l-2 -2l-2 -2q-2 -3 -5 -7l-255 -335q-6 -8 -17 -8zM512 790q-125 0 -213 -88.5t-88 -213.5q0 -97 57 -176q0 -1 0.5 -1.5l0.5 -0.5
q1 -1 3 -4v0q1 -2 2 -2l238 -313l238 313q3 3 5 6v0q1 1 1 2q57 79 57 176q0 125 -88 213.5t-213 88.5zM512 354q-56 0 -95.5 39.5t-39.5 95.5t39.5 95.5t95.5 39.5t95.5 -39.5t39.5 -95.5t-39.5 -95.5t-95.5 -39.5zM512 581q-38 0 -65 -27t-27 -65t27 -65t65 -27t65 27
t27 65t-27 65t-65 27zM512 581zM512 -66v0q-10 0 -17 9l-255 335v0l-2 2q-1 2 -3 4l-1 2q-1 1 -2 3q-64 89 -64 199q0 143 100.5 243.5t243 100.5t243.5 -100.5t101 -243.5q0 -110 -64 -199q-1 -2 -2 -3l-1 -2q-3 -3 -5 -6l-256 -335q-6 -9 -16 -9zM273 303l239 -313
l239 313v1q2 3 5 6v0q0 1 1 1q57 79 57 177q0 125 -88.5 213.5t-213.5 88.5t-213.5 -88.5t-88.5 -213.5q0 -98 57 -177q1 0 1 -0.5v-1.5l3 -3q1 -2 2 -3zM511.5 355q-55.5 0 -95 39.5t-39.5 95t39.5 95t95 39.5t95 -39.5t39.5 -95t-39.5 -95t-95 -39.5zM512 582
q-38 0 -65.5 -27t-27.5 -65.5t27.5 -66t65.5 -27.5t65.5 27.5t27.5 66t-27.5 65.5t-65.5 27zM512 582z" />
    <glyph glyph-name="fenxiang" unicode="&#xe63b;" 
d="M797 289q-38 0 -71 -17t-56 -47l-228 108q7 26 7 51t-7 51l228 108q23 -30 56 -47t71 -17q65 0 111.5 46.5t46.5 112t-46.5 111.5t-112 46t-111.5 -46t-46 -112q0 -17 4 -37l-228 -108q-27 38 -68 60t-88 22q-79 0 -134.5 -55.5t-55.5 -134.5t55.5 -134.5t134.5 -55.5
q47 0 88 22t68 60l228 -108q-4 -20 -4 -37q0 -66 46 -112t111.5 -46t112 46t46.5 111.5t-46.5 112t-111.5 46.5zM797 732q39 0 67 -28t28 -67t-28 -67t-67 -28t-67 28t-28 67t28 67t67 28zM259 257q-52 0 -89.5 37.5t-37.5 89.5t37.5 89.5t89.5 37.5t89 -37.5t37 -89.5
t-37 -89.5t-89 -37.5zM797 36q-39 0 -67 28t-28 67t28 67t67 28t67 -28t28 -67t-28 -67t-67 -28z" />
    <glyph glyph-name="liulanliang" unicode="&#xe63c;" 
d="M504 652q128 0 234 -73t160 -194h68q-56 149 -181.5 241.5t-280.5 92.5t-280.5 -92.5t-181.5 -241.5h68q54 121 160 194t234 73zM504 118q-128 0 -234 73.5t-160 193.5h-68q56 -149 181.5 -241.5t280.5 -92.5t280.5 92.5t181.5 241.5h-68q-54 -120 -160 -193.5
t-234 -73.5zM338 385q0 -74 48.5 -126t117.5 -52t117.5 52t48.5 126t-48.5 126t-117.5 52t-117.5 -52t-48.5 -126zM608 385q0 -46 -30.5 -78.5t-73.5 -32.5t-73.5 32.5t-30.5 78.5t30.5 78.5t73.5 32.5t73.5 -32.5t30.5 -78.5z" />
    <glyph glyph-name="liulanliang1" unicode="&#xe63d;" 
d="M512 659h5q98 0 183.5 -33.5t140 -92t63.5 -129.5l55 7q-11 85 -73 154.5t-160 109.5t-209 40h-5q-115 -1 -213 -41t-158.5 -109t-70.5 -154l55 -6q8 69 62 127.5t140 92.5t185 34zM904 355q-8 -70 -62 -128t-140 -92t-185 -35h-5q-98 0 -183.5 33.5t-140 92.5t-63.5 129
l-55 -7q11 -84 73 -154t160 -110t209 -40h5q115 1 213 41t158.5 109.5t70.5 154.5zM292 378q1 -92 66 -157t156 -65h2q92 1 157 67t64 159q-1 92 -66.5 157t-157.5 65q-92 -1 -157 -67.5t-64 -158.5zM681 381q1 -69 -47.5 -118.5t-117.5 -50.5l-2 -28v28q-68 0 -117 49
t-49 117q-1 70 48 119.5t119 50.5q68 0 117 -49t49 -118zM514 436v56q-46 -1 -78.5 -34t-32.5 -79h56q0 23 16 40t39 17z" />
    <glyph glyph-name="shijian" unicode="&#xe63e;" 
d="M513 -58q-90 0 -171.5 35t-140.5 94t-94 141t-35 171.5t35 171.5t94 141t140.5 94t171.5 35t171.5 -35t140.5 -94t94 -141t35 -171.5t-35 -171.5t-94 -141t-140.5 -94t-171.5 -35zM513 775q-106 0 -196.5 -52.5t-142.5 -142.5t-52 -196.5t52 -196.5t142.5 -142.5
t196.5 -52.5t196 52.5t142.5 142.5t52.5 196.5t-52.5 196.5t-142.5 142.5t-196 52.5zM738.5 273q-4.5 -10 -14.5 -13.5t-20 0.5l-207 70q-16 7 -15 25l-0.5 1t-0.5 2v286q0 11 8 18.5t18.5 7.5t18.5 -7.5t8 -18.5v-272l192 -64q10 -5 13.5 -15t-1 -20z" />
    <glyph glyph-name="weixin" unicode="&#xe63f;" 
d="M500 531q18 0 28.5 10.5t10.5 28t-10.5 28t-28.5 10.5t-32 -11t-14 -27.5t14 -27.5t32 -11zM284 608q-18 0 -32 -11t-14 -27.5t14 -27.5t32 -11t28.5 10.5t10.5 28t-10.5 28t-28.5 10.5zM962 284q0 91 -74 159.5t-178 77.5v4q-21 98 -114 163t-211 65q-88 0 -162.5 -37
t-117.5 -100.5t-43 -138.5q0 -125 121 -214l-28 -83q-3 -9 4 -15q4 -3 10 -3q3 0 6 1l104 52l12 -3q60 -12 94 -12q16 0 31 1q5 1 8 6q29 -71 100.5 -116t161.5 -45q32 0 90 14l80 -43q3 -2 7 -2q5 0 9 3q7 6 5 15l-21 68q106 83 106 183zM412 229q-13 -1 -27 -1
q-32 0 -88 12l-18 3q-1 1 -2 1q-4 0 -7 -2l-77 -39l20 61q1 2 1 4q0 8 -6 12q-118 82 -118 197q0 102 86.5 175t208.5 73q107 0 192 -58t105 -145q-113 -2 -193 -71.5t-80 -166.5q0 -27 8 -55q-3 1 -5 0zM831 117q-5 -4 -5 -11v-4l14 -44l-55 30q-3 1 -7 1h-3
q-59 -15 -89 -15q-103 0 -176 61.5t-73 148.5t73 148.5t176 61.5q101 0 174.5 -62.5t73.5 -147.5q0 -90 -103 -167zM601 384q-12 0 -21.5 -9.5t-9.5 -21.5t9.5 -21.5t21.5 -9.5q17 0 27.5 9.5t10.5 21.5t-10.5 21.5t-27.5 9.5zM770 384q-11 0 -20.5 -9.5t-9.5 -21.5
t9.5 -21.5t20.5 -9.5q17 0 28 9.5t11 21.5t-11 21.5t-28 9.5z" />
    <glyph glyph-name="weibo" unicode="&#xe640;" 
d="M727 388q-16 3 -20.5 9t-0.5 11l3 5l3 6t6 15.5t4.5 23t-4.5 25.5t-16 26q-14 14 -37 18t-46 0.5t-44 -9t-33 -10.5l-13 -6q-10 -3 -17 -4t-10.5 0.5t-5.5 3t-2 7t1 9.5t3 12.5t3 13.5q0 15 -2.5 28t-11 27.5t-23 21.5t-41 6.5t-62.5 -12.5q-35 -11 -71.5 -35t-64.5 -50
t-50 -50t-34 -39l-12 -15q-33 -44 -49 -87.5t-16 -65.5v-21q6 -49 30 -87t57 -62t78.5 -40.5t86.5 -24t88 -11.5q76 -6 157 12t151 61t99 104q17 36 17.5 67t-10.5 50.5t-29.5 34.5t-34 22t-27.5 10zM415 74q-110 -5 -188 42.5t-78 119.5t77.5 124t188.5 57
q112 5 188.5 -36.5t76.5 -112.5q0 -73 -78 -131t-187 -63zM385 354q-30 -4 -53.5 -14t-37 -24t-22.5 -30t-12.5 -31t-4.5 -27t-0.5 -20l0.5 -8v-4t2 -12t5.5 -16.5t12 -17t19.5 -15.5q67 -32 126 -19t94 58q14 17 18.5 42t-2 51t-22.5 47.5t-48.5 32.5t-74.5 7zM348.5 162.5
q-20.5 -2.5 -35.5 8t-15 27.5t14 32t34 17q23 2 37.5 -9t14.5 -29q0 -17 -14.5 -30.5t-35 -16zM435 235q-7 -5 -14.5 -4t-11.5 7t-2 14.5t9 12.5q8 6 15.5 5t11.5 -7q3 -6 1 -14t-9 -14zM798 447q9 0 16 5.5t8 14.5v2q4 33 -1 58t-16.5 38.5t-26.5 22.5t-30.5 11.5
t-28.5 3.5t-21 0l-8 -2q-10 0 -17 -7t-7 -17q0 -9 7 -16t17 -7q32 6 50.5 0t26 -19.5t9 -28t0.5 -25.5l-2 -11q0 -9 7 -16t17 -7zM781 725q-51 12 -121 -1l-1.5 -0.5l-1.5 -0.5l-1 -1q-11 -3 -18.5 -12t-7.5 -21q0 -15 10.5 -25t25.5 -10q18 3 31 7q6 1 18.5 2t33.5 -4
t42 -13t43 -26.5t37 -43.5q28 -60 11 -115q-7 -17 -7 -33q0 -14 10 -22.5t25 -8.5t23 5.5t11 23.5v0q19 56 14.5 101.5t-20 79.5t-43.5 58.5t-56 38.5t-58 21zM781 725z" />
    <glyph glyph-name="weixin1" unicode="&#xe641;" 
d="M670 538q14 0 31 -2q-21 96 -112 159t-208 63q-85 0 -158 -35.5t-115.5 -97.5t-42.5 -136q0 -125 127 -213l-32 -96l111 56q80 -16 110 -16q14 0 30 1q-10 34 -10 67q0 104 78.5 177t190.5 73zM500 624q18 0 29 -11t11 -28.5t-11 -28.5t-29 -11q-19 0 -33 11t-14 28.5
t14 28.5t33 11zM279 545q-19 0 -33.5 11t-14.5 28.5t14.5 28.5t33.5 11q17 0 28 -11t11 -28.5t-11 -28.5t-28 -11zM959 291q0 94 -80.5 162t-188.5 68q-112 0 -190.5 -67t-78.5 -162.5t78.5 -162.5t190.5 -67q32 0 95 16l87 -48l-24 79q111 83 111 182zM603 331
q-12 0 -22 10t-10 21.5t10 21.5t22 10q17 0 28.5 -9.5t11.5 -22t-11.5 -22t-28.5 -9.5zM777 331q-12 0 -21.5 10t-9.5 21.5t9.5 21.5t21.5 10q17 0 28.5 -9.5t11.5 -22t-11.5 -22t-28.5 -9.5z" />
    <glyph glyph-name="xinlang" unicode="&#xe642;" 
d="M465 15q-109 0 -201.5 35.5t-146.5 96t-54 131.5q0 52 44 119.5t103.5 123t123 94t101.5 38.5q19 0 37.5 -7t35.5 -22.5t16.5 -42t-20.5 -64.5q-1 -2 6 0.5t20.5 7t30.5 9.5t37 8.5t39.5 5t40 -2.5t35.5 -13q26 -15 31.5 -36.5t-3 -38.5t-18.5 -32t-10 -16
q0 -2 15.5 -4.5t38 -9.5t44.5 -19.5t37.5 -37.5t15.5 -60q0 -71 -53 -131.5t-145 -96t-201 -35.5v0zM780 553q-11 13 -30 19t-33 5l-13 -1q-8 0 -13.5 5t-5.5 13v7q0 8 5 14.5t13 7.5q7 2 18.5 3t40 -5t49.5 -25t27.5 -49.5t2.5 -50.5l-3 -21q-2 -8 -8.5 -13.5t-14.5 -5.5
h-17q-7 0 -11 5.5t-2 12.5q1 1 4.5 13.5t2.5 32.5t-12 33zM956 451q-1 -11 -10.5 -19.5t-20.5 -8.5h-12q-12 0 -19 8t-6 20q1 4 2.5 10.5t2.5 27t-1 40t-10 45t-22.5 46.5t-37.5 35t-45.5 19.5t-43 7.5t-33.5 1l-13 -1q-12 0 -20 8t-8 19v14q0 12 8 20.5t20 8.5q5 0 14 0.5
t35 -2t51 -8.5t56 -22t55 -39t39 -55t19 -61.5t4.5 -55.5t-1.5 -42zM428 434q-106 -15 -174 -75t-58.5 -130t91.5 -109t188.5 -24t174.5 75t58 130t-92 109t-188 24zM449 121.5q-63 -12.5 -115 16.5t-62.5 82.5t27 100t100.5 59t115 -16.5t62.5 -82.5t-27 -100t-100.5 -59z
M358.5 263.5q-19.5 -9.5 -28 -26t-2 -31.5t25.5 -19t38.5 5t28 26t2 32t-25.5 19t-38.5 -5.5zM451.5 305q-10.5 0 -18 -8t-7.5 -18.5t7.5 -18.5t18 -8t18.5 8t8 18.5t-8 18.5t-18.5 8z" />
    <glyph glyph-name="weibo1" unicode="&#xe643;" 
d="M484 -62q-101 0 -191.5 29.5t-152.5 92.5q-59 62 -71.5 147.5t26.5 165.5q43 91 128.5 165.5t184.5 108.5q31 12 65 15q27 3 52 -4q18 -6 35 -20q15 -12 22 -32q2 -8 8 -31q2 -8 2 -28v-4q0 -2 -4 -16q0 -2 -1 -4.5t-1 -3.5q1 0 3 1t3 1l13 6q11 5 42 14q29 8 50 10
q14 2 29.5 2t30.5 -2q31 -6 51 -26q13 -13 19 -26q5 -8 9 -26q3 -13 0 -26q0 -9 -4 -22l-7 -19q-4 -9 -4 -11h2q22 -4 37 -11q25 -13 43 -28q25 -21 37 -46q15 -24 15 -69q0 -35 -21 -85q-38 -75 -118 -126q-81 -53 -176 -72q-68 -20 -156 -20v0zM490 621h-13
q-26 -4 -54 -13q-91 -31 -169.5 -100t-119.5 -152q-33 -67 -22.5 -139t59.5 -124q37 -40 93.5 -66t118.5 -35t125.5 -7t123.5 14q91 21 160 65q73 47 103 109q17 38 17 68q0 31 -9 45q-8 17 -28 33q-14 14 -33 22q-4 1 -9 3t-10 3.5t-7 1.5q-29 8 -37 20q-14 17 -2 37l5 8
q0 1 0.5 2.5t1.5 3.5t2 3q1 2 2 5.5t2 5.5q0 2 1 7t1 8v15q0 7 -4 15.5t-11 15.5q-12 12 -30 15q-24 3 -44 0q-8 -1 -24 -4.5t-21 -4.5q-8 -2 -19.5 -5.5t-15.5 -4.5l-18 -7q-17 -4 -21 -4q-10 -3 -24 2q-9 4 -11 6q-11 11 -11 26q0 9 2 11q0 2 1 7.5t1 10.5q3 4 3 13
q0 13 -3 19q0 9 -6 22q-2 7 -11 15q-6 7 -20 11q0 -3 -8 -2h-7zM468.5 12q-115.5 0 -197 58.5t-81.5 141.5t82 141.5t196.5 58.5t196.5 -58.5t82 -141.5t-81.5 -141.5t-197 -58.5zM468.5 367q-97.5 0 -166 -46t-68.5 -111t69 -110.5t165.5 -45.5t165.5 45.5t69 110.5
t-68.5 111t-166 46zM469 136q-31 0 -52.5 21.5t-21.5 52.5t21.5 52.5t52.5 21.5t52 -21.5t21 -52.5t-21 -52.5t-52 -21.5zM468.5 241q-13.5 0 -22 -9t-8.5 -22t8.5 -21.5t22 -8.5t22 8.5t8.5 21.5t-8.5 22t-22 9zM812 591q-25 37 -74 47q-48 7 -85 -19l-24 35
q54 37 118 25.5t102 -65.5zM919 684q-58 82 -155 99t-178 -40l-24 34q96 67 211.5 47t181.5 -116z" />
    <glyph glyph-name="xuexiao2" unicode="&#xe644;" 
d="M937 30h-63v551q0 17 -17 28q-13 8 -31 8h-169v132q0 18 -16 31q-14 11 -33 11h-417q-19 0 -33 -11q-16 -13 -16 -31v-716v-1v-2h-58q-8 0 -14.5 -8.5t-6.5 -17.5t6.5 -18t14.5 -9h853q8 0 14.5 8t6.5 17.5t-6.5 18.5t-14.5 9zM818 574q9 0 13 -4v-541l-171 1v3l-2 541
h160zM187 33l-2 676q0 3 0.5 6t2.5 9.5t6 12t12 9.5t20 4h366q6 0 13 -2.5t7 -3.5v-711q0 -1 -2 -3h-421q-2 1 -2 3zM187 33zM527 671h-255q-7 0 -12 -5.5t-5 -13.5t5 -13.5t12 -5.5h255q8 0 13 5.5t5 13.5t-5 13.5t-13 5.5zM527 531h-255q-7 0 -12 -5.5t-5 -13.5t5 -13.5
t12 -5.5h255q8 0 13 5.5t5 13.5t-5 13.5t-13 5.5zM527 379h-255q-7 0 -12 -5.5t-5 -13.5t5 -13.5t12 -5.5h255q8 0 13 5.5t5 13.5t-5 13.5t-13 5.5zM527 229h-255q-7 0 -12 -5.5t-5 -13.5t5 -13.5t12 -5.5h255q8 0 13 5.5t5 13.5t-5 13.5t-13 5.5zM527 229z" />
    <glyph glyph-name="weixin2" unicode="&#xe645;" 
d="M415 272q0 -95 79 -162.5t191 -67.5q60 0 114 22l89 -49l-25 85q43 32 67.5 76.5t24.5 95.5q0 95 -79 162.5t-191 67.5t-191 -67.5t-79 -162.5zM743 362q0 15 10.5 25.5t26.5 10.5q14 0 25 -10.5t11 -25t-11 -25t-25 -10.5q-15 0 -26 10t-11 25zM548 362q0 15 10.5 25.5
t25.5 10.5t26 -10.5t11 -25.5t-11 -25t-26 -10t-25.5 10.5t-10.5 24.5zM69 483q0 -63 32 -118t87 -93l-30 -104l89 49l17 16q60 -21 125 -21h12q-9 30 -9 60q0 104 86 177.5t207 73.5h21q-17 98 -107 164t-210 66q-87 0 -160.5 -36t-116.5 -98.5t-43 -135.5zM470 573
q0 16 11.5 27t28 11t27.5 -11t11 -27t-11.5 -27.5t-27.5 -11.5t-27.5 11.5t-11.5 27.5zM225 573q0 16 11.5 27t27.5 11t27.5 -11t11.5 -27t-11.5 -27.5t-27.5 -11.5t-27.5 11.5t-11.5 27.5z" />
    <glyph glyph-name="zuopin" unicode="&#xe646;" 
d="M268.5 831q-82.5 0 -141 -58.5t-58.5 -141t58.5 -141t141 -58.5t141 58.5t58.5 141t-58.5 141t-141 58.5zM268.5 497q-55.5 0 -95 39.5t-39.5 95t39.5 95t95 39.5t95 -39.5t39.5 -95t-39.5 -95t-95 -39.5zM757.5 830q-82.5 0 -141 -58.5t-58.5 -141t58.5 -141t141 -58.5
t141 58.5t58.5 141t-58.5 141t-141 58.5zM757.5 496q-55.5 0 -95 39.5t-39.5 95t39.5 95t95 39.5t95 -39.5t39.5 -95t-39.5 -95t-95 -39.5zM270 342q-83 0 -141.5 -58.5t-58.5 -141t58.5 -141t141.5 -58.5t141.5 58.5t58.5 141t-58.5 141t-141.5 58.5zM270 8q-56 0 -95 39.5
t-39 95t39 95t95 39.5t95 -39.5t39 -95t-39 -95t-95 -39.5v0zM757.5 342q-82.5 0 -141 -58.5t-58.5 -141t58.5 -141t141 -58.5t141 58.5t58.5 141t-58.5 141t-141 58.5zM757 8q-55 0 -94.5 39.5t-39.5 95t39.5 95t95 39.5t95 -39.5t39.5 -95t-39.5 -95t-95.5 -39.5v0z" />
    <glyph glyph-name="zuopinguanli" unicode="&#xe647;" 
d="M893 788h-763q-36 0 -62 -25.5t-26 -62.5v-645q0 -37 26 -62.5t62 -25.5h763q36 0 62 25.5t26 62.5v645q0 37 -26 62.5t-62 25.5zM130 730h763q12 0 20.5 -9t8.5 -21v-345q-111 91 -227 91q-33 0 -66 -10.5t-71 -34.5t-62.5 -41.5t-67.5 -51.5q-44 -35 -68 -53t-58 -35.5
t-57 -17.5q-74 0 -144 68v430q0 12 8.5 21t20.5 9v0zM893 26h-763q-12 0 -20.5 8.5t-8.5 20.5v139q72 -51 144 -51q25 0 51 8.5t57.5 29t52 35.5t58.5 45q40 31 61.5 47t55 38t61 31.5t53.5 9.5q35 0 72 -12t61.5 -26.5t49.5 -34.5t31.5 -26.5l12.5 -12.5v0v-220
q0 -12 -8.5 -21t-20.5 -9v1zM335 377q49 0 83.5 34.5t34.5 83t-34.5 83t-83.5 34.5t-83 -34.5t-34 -83t34 -83t83 -34.5zM335.5 554q24.5 0 41.5 -17.5t17 -41.5t-17 -41t-41.5 -17t-41.5 17t-17 41t17 41.5t41.5 17.5zM335 554z" />
    <glyph glyph-name="yixiazaijianli" unicode="&#xe648;" 
d="M212 75h-42v683q0 24 16.5 41t40.5 17h570q24 0 40.5 -17t16.5 -41v-674h-42v674q0 6 -4.5 10.5t-10.5 4.5h-570q-6 0 -10.5 -4.5t-4.5 -10.5v-683zM867 -48h-707q-33 0 -56 23.5t-23 55.5v144q0 8 6.5 14.5t15 6.5t15 -6.5t6.5 -14.5v-144q0 -15 10.5 -25.5t25.5 -10.5
h707q15 0 25.5 10.5t10.5 25.5v144q0 8 6.5 14.5t15 6.5t15 -6.5t6.5 -14.5v-144q0 -32 -23 -55.5t-56 -23.5zM524.5 53q-8.5 0 -15 6.5t-6.5 15.5v260q0 9 6.5 15t15 6t15 -6t6.5 -15v-260q0 -9 -6.5 -15.5t-15 -6.5zM525 53h-1q-8 0 -14 7l-154 154q-7 6 -7 14.5t6.5 15
t15 6.5t15.5 -7l139 -138l138 138q7 7 15.5 7t15 -6.5t6.5 -15t-7 -14.5l-154 -154q-6 -7 -14 -7v0v0zM682 650h-366q-9 0 -15 6.5t-6 15t6 15t15 6.5h366q8 0 14.5 -6.5t6.5 -15t-6.5 -15t-14.5 -6.5zM636 529h-320q-9 0 -15 6t-6 15t6 15t15 6h320q8 0 14.5 -6t6.5 -15
t-6.5 -15t-14.5 -6zM534 411h-218q-9 0 -15 6t-6 15t6 15t15 6h218q9 0 15 -6t6 -15t-6 -15t-15 -6z" />
    <glyph glyph-name="zan1" unicode="&#xe649;" horiz-adv-x="1126" 
d="M1074 246q0 55 -36 79q12 6 24 32.5t12 51.5q-1 45 -41 74t-104 29h-229q29 80 24 175t-42 152q-36 57 -89 57q-86 0 -86 -107q0 -102 -30 -171q-14 -28 -67 -67t-106 -39h-153q-44 0 -72.5 -33.5t-28.5 -86.5l39 -416q8 -103 100 -103q32 -1 55 -1q19 0 30 1q19 0 50 23
q19 14 25 14q1 0 7 -3t17 -8t20 -9q43 -18 95 -18h319q78 0 118 28t40 79q0 25 -16 46q35 9 58 30t23 54q0 14 -5.5 30.5t-13.5 21.5q19 5 41 31t22 54zM272 -85h-88q-18 0 -32.5 15t-18.5 39l-40 433q0 25 18 46.5t43 21.5v0l150 -1q1 0 3.5 0.5t3.5 0.5v-530
q-147 -104 -244 -252q212 227 205 227zM971 190h-6v-39q22 -8 22 -40q0 -25 -26.5 -38t-60.5 -13v0l-1 -37q23 -5 22 -40q0 -68 -115 -68h-330q-29 0 -66 18q-7 3 -55 29v515q56 15 104 55.5t64 71.5q15 35 22 76.5t7 113.5q0 34 10 45t27 11q13 0 30.5 -12t28.5 -28
q32 -51 34 -138t-35 -167l-9 -36h293q40 -2 70 -18t30 -42l-1 -11q1 -1 0 -8.5t-5.5 -19t-12.5 -18.5q-6 -5 -12.5 -8t-9.5 -3l-3 -1v-38q17 -2 25 -8q20 -14 19 -45q-1 -18 -22 -38.5t-38 -20.5zM971 190z" />
    <glyph glyph-name="new" unicode="&#xe64a;" horiz-adv-x="1706" 
d="M1195 896h-683q-138 0 -256 -69t-187 -187t-69 -256t69 -256t187 -187t256 -69h683q103 0 198 40.5t163.5 109.5t109.5 163.5t41 198.5t-41 198.5t-109.5 163.5t-163.5 109.5t-198 40.5zM623 196h-77l-162 256v-256h-77v384h77l162 -256v256h77v-384zM947 196h-256v384
h256v-59h-170v-94h145v-60h-145v-111h170v-60zM1357 196h-77l-77 256l-77 -256h-76l-94 384h85l51 -264l69 264h68l68 -264l51 264h86z" />
    <glyph glyph-name="quanping" unicode="&#xe64b;" 
d="M965 892h-217q-22 0 -38 -16.5t-16 -39t16 -38t38 -15.5h87l-267 -271q-15 -16 -15 -38t15.5 -37.5t37.5 -15.5t38 15v0l267 271v-87q0 -23 16 -38.5t38 -15.5t38 15.5t16 38.5v217q0 22 -16 38.5t-38 16.5zM418 348q-21 0 -37 -15v0l-267 -272v90q0 22 -16 37.5
t-38 15.5t-38 -15.5t-16 -37.5v-219q0 -23 16 -38.5t38 -15.5h219q22 0 38 15.5t16 38t-16 38t-38 15.5h-89l267 272q15 15 15 37t-15.5 38t-38.5 16zM457 512l-267 271h89q22 0 38 15.5t16 38t-16 39t-38 16.5h-219q-22 0 -38 -16.5t-16 -38.5v-217q0 -23 16 -38.5
t38 -15.5t38 15.5t16 38.5v87l267 -271q16 -15 37 -15q23 0 38.5 15.5t15.5 37.5t-15 38v0zM965 204q-22 0 -38 -15.5t-16 -37.5v-90l-267 272q-16 15 -38 15t-37.5 -16t-15.5 -38t15 -37v0l267 -272h-87q-22 0 -38 -15.5t-16 -38t16 -38t38 -15.5h217q22 0 38 15.5t16 38.5
v219q0 22 -16 37.5t-38 15.5z" />
    <glyph glyph-name="hot" unicode="&#xe64c;" 
d="M921 528q36 39 23 139q-8 48 -15 46q-4 -9 -14 -15t-19 -8l-8 -1q1 1 3 5.5t4.5 26.5t-2.5 60q-4 37 -13.5 65.5t-17.5 38.5l-7 11q-21 -31 -62 -71q-18 -18 -45 -29t-45 -13l-18 -3q3 11 6 30q1 10 0 18.5t-3 15.5l-1 6q-9 -13 -58 -44q-31 -21 -45 -23q-36 5 -72 5
q-92 0 -175.5 -35.5t-144 -96t-96.5 -144t-36 -175.5t36 -175.5t96.5 -144t144 -96t175.5 -35.5t175.5 35.5t144 96t96 144t35.5 175.5q0 41 -12.5 97t-29.5 94v0zM375 162h-58v112h-116v-112h-58v272h58v-110h116v110h58v-272v0zM540 399q-34 0 -53.5 -25t-19.5 -66
q0 -40 19 -65t53 -25t53 24t19 65q0 43 -18.5 67.5t-52.5 24.5zM650 196.5q-37 -39.5 -97 -39.5q-58 0 -94.5 38.5t-36.5 98.5q0 64 37 104.5t99 40.5q58 0 93.5 -39t35.5 -100q0 -64 -37 -103.5zM905 387h-77v-225h-59v224h-77v48h213v-47v0z" />
    <glyph glyph-name="ditu" unicode="&#xe64d;" 
d="M512 126v0q-15 0 -24 11q-9 10 -30 34q-35 40 -43.5 49.5t-41 48.5t-44.5 57t-35 53.5t-32.5 59.5t-18 55t-8.5 58q0 115 82 197t197 82t196.5 -82t81.5 -197q0 -36 -14 -77.5t-32 -74.5t-52.5 -78t-55 -69t-59.5 -68q-12 -14 -18 -20q-15 -17 -25 -28t-24 -11v0z
M514 767q-89 0 -152 -63t-63 -152q0 -41 15.5 -83.5t43 -81.5t53 -68.5t58 -64.5t45.5 -51q14 18 58 66.5t74 84.5t56 91.5t26 106.5q0 89 -62.5 152t-151.5 63zM514 446q-50 0 -86 36t-36 86t36 86t86 36t85.5 -36t35.5 -86t-35.5 -86t-85.5 -36zM514 626q-24 0 -41 -17
t-17 -41t17 -41t41 -17t40.5 17t16.5 41t-16.5 41t-40.5 17zM931 -44h-838q-17 0 -27 15q-5 7 -5 17q0 7 4 14l123 255q4 8 12.5 13t16.5 5v0h72q13 0 22.5 -9.5t9.5 -22.5t-9.5 -22.5t-22.5 -9.5h-52l-92 -191h737l-84 191h-62q-14 0 -23 9.5t-9 22.5t9 22.5t23 9.5h83
q21 0 29 -19l112 -256q3 -6 3 -12q0 -10 -6 -18q-9 -14 -26 -14z" />
    <glyph glyph-name="yonghu1" unicode="&#xe64e;" 
d="M150 -63q-1 11 -1 22q0 89 48.5 165t132.5 120t182 44t182 -44t132.5 -120t48.5 -165q0 -11 -1 -22h62v22q0 80 -33 153q-33 70 -92 124q-94 87 -224 108q76 24 125 90t49 148q0 104 -73 177.5t-176 73.5t-176 -73.5t-73 -177.5q0 -82 49 -148t125 -90
q-130 -21 -224 -108q-59 -54 -92 -124q-33 -73 -33 -153v-22h62zM327 582.5q0 77.5 54 132t131 54.5t131 -54.5t54 -132t-54 -132t-131 -54.5t-131 54.5t-54 132z" />
    <glyph glyph-name="zuopin1" unicode="&#xe64f;" 
d="M512 893q104 0 198 -40t162.5 -108.5t108.5 -162.5t40 -198t-40 -198t-108.5 -162.5t-162.5 -108.5t-198 -40t-198 40t-162.5 108.5t-108.5 162.5t-40 198t40 198t108.5 162.5t162.5 108.5t198 40zM226 6l217 218l73 -72l288 288l169 -169q13 56 13 113q0 97 -37.5 184.5
t-101 151t-151 101t-184 37.5t-184.5 -37.5t-151.5 -101t-101 -151t-37.5 -184.5q0 -114 50 -213t138 -165zM961 229l-158 158l-288 -289l-73 72l-186 -186q117 -74 256 -74q154 0 277 89t172 230v0zM365 614q44 0 75 -31t31 -75q0 -31 -16 -56l-0.5 -1.5t-1.5 -2.5l-26 16
l1 1l1 1q12 19 12 42q0 31 -22.5 53.5t-54 22.5t-53.5 -22.5t-22 -54t22 -53.5t54 -22q39 0 62 32l26 -15q-31 -48 -88 -48q-45 0 -76 31.5t-31 75.5t31 75t76 31v0z" />
    <glyph glyph-name="zuobiao" unicode="&#xe650;" 
d="M512 823q-123 0 -209.5 -86.5t-86.5 -209.5q0 -69 30.5 -145.5t74 -136t87 -109t73.5 -76.5l31 -27q6 5 17 14.5t41.5 40t58.5 62.5t62 79t59 92.5t41.5 100.5t16.5 105q0 123 -86.5 209.5t-209.5 86.5zM512 428q-41 0 -70 29t-29 70t29 70t70 29t70 -29t29 -70t-29 -70
t-70 -29z" />
    <glyph glyph-name="shoucang" unicode="&#xe651;" 
d="M509.5 771q15.5 0 22.5 -13l101 -207q10 -19 31 -22l235 -35q14 -2 19 -15q4 -12 -5 -21l-172 -168q-15 -15 -12 -35l40 -233q2 -13 -9 -21q-7 -4 -15 -4q-6 0 -12 3l-204 108q-9 4 -20 4q-10 0 -19 -4l-204 -108q-6 -3 -12 -3q-8 0 -15 4q-11 8 -9 21l40 233
q3 20 -12 35l-172 168q-9 9 -5 21q5 13 19 15l235 35q21 3 31 22l101 207q7 13 22.5 13zM509.5 811q-18.5 0 -34.5 -10t-24 -26l-102 -207l-235 -34q-18 -3 -32 -14t-20 -27q-12 -36 15 -63l172 -168l-40 -233q-6 -38 27 -61q17 -11 38 -11q17 0 32 8l204 107l204 -107
q14 -8 31 -8q21 0 38 11q33 23 27 61l-40 233l172 168q27 27 15 63q-6 16 -20 27t-32 14l-235 34l-102 207q-8 16 -24 26t-34.5 10z" />
    <glyph glyph-name="vr1" unicode="&#xe652;" horiz-adv-x="1025" 
d="M290 534q-40 0 -69 -28.5t-29 -69t29 -69.5t69 -29v0q41 0 69.5 29t28.5 69.5t-28.5 69t-69.5 28.5v0zM291 380q-23 0 -39.5 16.5t-16.5 39.5t16.5 39t39.5 16t39 -16t16 -39t-16 -39.5t-39 -16.5zM725.5 534q-40.5 0 -69 -28.5t-28.5 -69t28.5 -69t69 -28.5t69.5 28.5
t29 69t-29 69t-69.5 28.5zM726.5 380q-22.5 0 -39 16.5t-16.5 39.5t16.5 39t39 16t39 -16t16.5 -39t-16.5 -39.5t-39 -16.5zM859 674h-694q-43 0 -73 -30.5t-30 -72.5v-355q0 -43 30 -73t73 -30h121v0q47 2 75 40v-1l111 150v0q17 19 42 20q25 0 42 -21l1 1l48 -67v0l58 -79
v0q29 -43 81 -43h1v0h114q43 0 73 30t30 73v355v0q0 43 -30 73t-73 30v0zM920 216q0 -25 -18 -43t-43 -18h-113v0h-1v0q-26 0 -42 20l-1 -1l-112 154h-1q-29 37 -76 37q-48 0 -78 -40v1l-106 -147l-1 1q-15 -24 -43 -25h1h-2h-1v0h-118q-25 0 -43 18t-18 43v355q0 25 18 43
t43 18h694q25 0 43 -18t18 -43v-355v0z" />
    <glyph glyph-name="bofangliang" unicode="&#xe653;" 
d="M795 816h-566q-83 0 -141.5 -58.5t-58.5 -140.5v-467q0 -83 58.5 -141.5t141.5 -58.5h566q82 0 140.5 58.5t58.5 141.5v467q0 82 -58.5 140.5t-140.5 58.5zM928 150q0 -55 -39 -94t-94 -39h-566q-56 0 -95 39t-39 94v467q0 55 39 94t95 39h566q55 0 94 -39t39 -94v-467z
M678 440q-229 146 -237 151q-28 15 -45.5 3.5t-17.5 -41.5v-336q0 -35 17.5 -46t45.5 6q154 90 248 160q26 21 22 53t-33 50zM445 257v253q10 -7 55.5 -35.5t91 -58t49.5 -31.5q-77 -57 -196 -128z" />
    <glyph glyph-name="bofang1" unicode="&#xe654;" 
d="M512 831q-91 0 -174 -35.5t-142.5 -95t-95 -142.5t-35.5 -174t35.5 -174t95 -142.5t142.5 -95t174 -35.5t174 35.5t142.5 95t95 142.5t35.5 174t-35.5 174t-95 142.5t-142.5 95t-174 35.5zM512 -8q-106 0 -196.5 52.5t-143 143t-52.5 196.5t52.5 196.5t143 143
t196.5 52.5t196.5 -52.5t143 -143t52.5 -196.5t-52.5 -196.5t-143 -143t-196.5 -52.5v0zM512 -8zM714 419l-245 149l-3 2q-20 9 -41 9q-26 0 -41.5 -16t-15.5 -43v-284l1 -4q5 -15 19.5 -28.5t35.5 -13.5q16 0 33 9l242 137l2 2q10 6 16 16.5t8 26t-8 31.5zM431 248
q-4 -2 -6 -2q-1 1 -2 1v273q0 2 1 3q7 0 18 -4l225 -137zM431 248z" />
    <glyph glyph-name="biaoqian" unicode="&#xe655;" 
d="M992 212l-308 -308l-15 16l15 -16q-32 -32 -78 -32t-78 32l-496 496q-13 14 -22.5 36.5t-9.5 41.5v9l22 285q3 40 33 69.5t69 32.5l285 22h9q19 0 42 -9.5t36 -22.5l496 -496q32 -32 32 -78t-32 -78zM85.5 810.5q-17.5 -17.5 -19.5 -41.5l-22 -286v-5q0 -27 19 -47
l496 -496q20 -19 47.5 -19t46.5 19l308 308q19 19 19 46.5t-19 47.5l-496 496q-19 19 -47 19h-5l-286 -22q-24 -2 -41.5 -19.5zM332.5 563.5q-25.5 -25.5 -61.5 -25.5t-61.5 25.5t-25.5 61.5t25.5 61.5t61.5 25.5t61.5 -25.5t25.5 -61.5t-25.5 -61.5zM240 656
q-13 -13 -13 -31t13 -31t31 -13t31 13v0q13 13 13 31t-13 31t-31 13t-31 -13z" />
    <glyph glyph-name="QQ" unicode="&#xe656;" 
d="M856 268q-6 81 -83 167q3 7 4.5 21.5t-5 37.5t-22.5 40v2q0 107 -67 177t-164 71q-97 -1 -163.5 -71t-66.5 -177v-2q-17 -17 -23 -40t-5 -37.5t4 -21.5q-77 -86 -83 -167q-2 -41 12 -59q7 -7 17 -4.5t23.5 17.5t24.5 38q13 -46 54 -100q-26 -6 -42 -24t-17 -36.5t7 -35.5
q23 -38 93 -38q106 0 150 42q5 5 15 5t16 -5q43 -42 149 -42q70 0 94 38q7 17 6.5 35.5t-16.5 36.5t-42 24q40 54 53 100q11 -23 24.5 -38t24 -17.5t16.5 4.5q14 18 12 59z" />
    <glyph glyph-name="password" unicode="&#xe657;" 
d="M773 459v111q0 6 -0.5 15.5t-5.5 36.5t-14 51.5t-28.5 54.5t-46 52t-70 37t-96.5 15t-96.5 -15t-69.5 -37t-46 -52t-29 -54.5t-14 -51.5t-5.5 -36.5t-0.5 -15.5v0v-111h-65q-20 0 -33.5 -14t-13.5 -33v-429q0 -19 13.5 -33t33.5 -14h652q20 0 33.5 14t13.5 33v429
q0 19 -13.5 33t-33.5 14h-65zM549 171v-99q0 -10 -6.5 -17t-16.5 -7h-28q-10 0 -16.5 7t-6.5 17v99q-38 21 -38 64q0 31 22 52.5t53 21.5t53 -21.5t22 -52.5q0 -43 -38 -64zM698 459h-372v111q0 15 2 32t13 46.5t29.5 52t55.5 39.5t86 17t86 -17t55.5 -39.5t29.5 -52
t13 -46.5t2 -32v-111zM698 459z" />
    <glyph glyph-name="shoujidenglu" unicode="&#xe658;" 
d="M788.5 804.5q-9.5 23.5 -25.5 41.5q-17 18 -38 28q-22 10 -47 10h-332q-25 0 -47 -10t-38 -28t-25.5 -41.5t-9.5 -50.5v-741q0 -27 9 -50q10 -23 26 -41t38 -28t47 -10h332q25 0 47 10t38 28t26 41q9 23 9 50v741q0 27 -9.5 50.5zM443 807q5 5 10 5h118q6 0 11 -5
q4 -5 4 -13.5t-4 -13.5q-5 -4 -11 -4h-118q-6 0 -10.5 4.5t-4.5 13.5q0 8 5 13zM512 -70q-21 0 -35.5 14.5t-14.5 35.5t14.5 35.5t35.5 14.5t35.5 -14.5t14.5 -35.5t-14.5 -35.5t-35.5 -14.5zM722 65h-421v638h421v-638v0z" />
    <glyph glyph-name="diannao" unicode="&#xe659;" horiz-adv-x="1025" 
d="M974 90h-313v-82l66 -65v-17h-430v17l66 65v82h-313q-21 0 -35.5 14.5t-14.5 34.5v654q0 20 14.5 34.5t35.5 14.5h924q21 0 35.5 -14.5t14.5 -34.5v-654q0 -20 -14.5 -34.5t-35.5 -14.5zM958 776h-892v-555h892v555z" />
    <glyph glyph-name="yanjing1" unicode="&#xe65a;" 
d="M1005 384q0 -29 -22.5 -67.5t-67.5 -78.5t-103.5 -74t-137.5 -56t-162 -22q-81 0 -159.5 21.5t-137 55.5t-104 74t-69 78.5t-23.5 68.5t23.5 68.5t69 78.5t104.5 74t137 55t159 21q84 0 163 -21t137.5 -55t103 -74t67.5 -78.5t22 -68.5zM512.5 627q-98.5 0 -168 -71
t-69.5 -172t69.5 -172t168 -71t168 71t69.5 172t-69.5 172t-168 71zM512 539q-63 0 -107 -45.5t-44 -109.5t44 -109.5t107 -45.5t107 45.5t44 109.5t-44 109.5t-107 45.5z" />
    <glyph glyph-name="shoujidenglu1" unicode="&#xe65b;" 
d="M813 251h-323v323h377v-323h-54zM813 467h-54v53h-161v-53h-54v-162h269v162zM705 413v54h54v-54h-54zM651 413h-53v54h53v-54zM705 359h-54v54h54v-54zM598 682h-324v-539h324v54h107v-215h-54v-54h-431v54h-53v808h53v54h431v-54h54v-162h-107v54zM382 -18h108v107
h-108v-107zM490 790h-108v-54h108v54z" />
    <glyph glyph-name="jianhao" unicode="&#xe65c;" 
d="M903 325h-782q-24 0 -41.5 17.5t-17.5 41.5t17.5 41.5t41.5 17.5h782q24 0 41.5 -17.5t17.5 -41.5t-17.5 -41.5t-41.5 -17.5z" />
    <glyph glyph-name="duigou" unicode="&#xe65d;" 
d="M499 51l-362 374l92 75l210 -166q38 46 85 96t115.5 115.5t157 134.5t181.5 126l22 -52q-114 -106 -222 -244.5t-177 -255.5t-102 -203zM961 489q12 -52 12 -105q0 -94 -36.5 -179.5t-98 -147t-147 -98t-179.5 -36.5t-179.5 36.5t-147 98t-98 147t-36.5 179.5t36.5 179.5
t98 147t147 98t179.5 36.5q91 0 175 -34v54q-84 31 -175 31q-104 0 -199 -40q-92 -39 -163 -110t-110 -163q-40 -95 -40 -199t40 -199q39 -92 110 -163t163 -110q95 -40 199 -40t199 40q92 39 163 110t110 163q40 95 40 199q0 54 -11 105h-52zM961 489q12 -52 12 -105
q0 -94 -36.5 -179.5t-98 -147t-147 -98t-179.5 -36.5t-179.5 36.5t-147 98t-98 147t-36.5 179.5t36.5 179.5t98 147t147 98t179.5 36.5q91 0 175 -34v54q-84 31 -175 31q-104 0 -199 -40q-92 -39 -163 -110t-110 -163q-40 -95 -40 -199t40 -199q39 -92 110 -163t163 -110
q95 -40 199 -40t199 40q92 39 163 110t110 163q40 95 40 199q0 54 -11 105h-52zM961 489q12 -52 12 -105q0 -94 -36.5 -179.5t-98 -147t-147 -98t-179.5 -36.5t-179.5 36.5t-147 98t-98 147t-36.5 179.5t36.5 179.5t98 147t147 98t179.5 36.5q91 0 175 -34v54
q-84 31 -175 31q-104 0 -199 -40q-92 -39 -163 -110t-110 -163q-40 -95 -40 -199t40 -199q39 -92 110 -163t163 -110q95 -40 199 -40t199 40q92 39 163 110t110 163q40 95 40 199q0 54 -11 105h-52z" />
    <glyph glyph-name="shang1" unicode="&#xe65e;" horiz-adv-x="1566" 
d="M115 157l466 584q33 42 94 57.5t121.5 0t94.5 -57.5l465 -584q20 -25 23.5 -53.5t-9 -53t-35.5 -44.5t-58.5 -32t-75.5 -12h-931q-40 0 -75.5 12t-58.5 32t-35.5 44.5t-9 53t23.5 53.5z" />
    <glyph glyph-name="shaixuan" unicode="&#xe65f;" 
d="M608.5 -64q-13.5 0 -23 9.5t-9.5 22.5v480v0q0 12 9 21l208 235h-563l210 -235q8 -9 8 -21v0v-289l51 -41q10 -8 11.5 -21.5t-7 -23.5t-21.5 -11.5t-24 6.5l-62 51q-12 10 -12 25v292l-249 279q-14 15 -5.5 34t29.5 19h706q21 0 29.5 -19t-5.5 -34l-249 -279v-468
q0 -13 -9 -22.5t-22.5 -9.5z" />
    <glyph glyph-name="shimingrenzheng" unicode="&#xe660;" 
d="M991 -52h1v1zM605 253l-4 1l-1 35v81q5 4 14 11.5t25 29.5t19 45q3 0 8 1q17 2 33 27t24 49l7 24q1 2 1 5t-1 11t-3 13.5t-6.5 10.5t-10.5 5q-26 0 -30 -1l6 79v17v10t-4 23t-10.5 32.5t-21 35t-34 33t-51 23.5t-71.5 10q-153 -1 -164 -66q-2 -14 2 -25v0v0
q-37 -23 -37 -85q0 -85 10 -95l-26 9q-1 0 -3.5 -0.5t-7.5 -3t-9 -7t-7 -13t-2 -19.5q2 -32 23.5 -65.5t47.5 -36.5q7 -1 8 -1q0 -17 5 -32.5t13 -25t15.5 -16.5t12.5 -10l6 -3v-77l-69 -38l-206 -68q-3 -1 -8 -3t-18 -11.5t-22.5 -21.5t-17.5 -34.5t-8 -49.5v-135h587
q-28 35 -48 81.5t-20 86.5q-1 86 54 154zM795.5 297q-81.5 0 -139 -57.5t-57.5 -139t57.5 -139t139 -57.5t139 57.5t57.5 139t-57.5 139t-139 57.5zM922 137q-62 -62 -121 -123q-1 -4 -9 -12q-13 -12 -19 -16q-13 -9 -23 0q-7 3 -14 10q-13 14 -37 37t-38 38
q-11 11 -12 20.5t2 14t11 12.5q11 11 20.5 11.5t14 -2.5t13.5 -12q11 -12 25.5 -26t21.5 -22q14 15 50.5 53t67.5 68q12 12 22 14t13.5 -0.5t9.5 -8.5q29 -30 2 -56z" />
    <glyph glyph-name="zhiwu" unicode="&#xe661;" 
d="M489 -118q23 0 135.5 67t112.5 87q0 13 -43 168.5t-86 305l-43 149.5l133 175q2 2 3.5 4.5t3.5 9.5t0.5 12t-11 9t-27.5 4h-353q-17 0 -27.5 -4t-13.5 -9.5t-3.5 -11.5t1.5 -10l2 -4l141 -175q-172 -590 -172 -623q0 -15 56.5 -53t117 -69.5t73.5 -31.5zM728 243l47 68
q7 9 7.5 23t-5.5 24l-175 290z" />
    <glyph glyph-name="guhua" unicode="&#xe662;" 
d="M903 159q0 -103 -65 -124t-322 -21h-3q-228 0 -287 11q-73 13 -92 59q-11 27 -11 75t19.5 110.5t56 126.5t83.5 118t108 88t123 34t123 -34t108 -88t83.5 -117.5t56 -126.5t19.5 -111zM514 568q-69 0 -117.5 -48.5t-48.5 -117.5t48.5 -118t117.5 -49t117.5 49t48.5 118
t-48.5 117.5t-117.5 48.5zM167 445q27 45 60.5 82.5t76.5 71.5t97 53.5t111 19.5t112 -21t98 -55.5t76 -72t56 -77.5q22 -36 56.5 -34.5t53.5 34.5q4 10 7 28t0 47.5t-15.5 60t-44.5 62t-80.5 55.5t-130.5 39.5t-188 15.5q-84 0 -153.5 -10t-116.5 -26.5t-83 -38.5t-56 -46
t-32.5 -49t-16 -47.5t-3 -42t3.5 -31.5t7 -17q15 -22 38.5 -26.5t42 4.5t24.5 21z" />
    <glyph glyph-name="xuexiao3" unicode="&#xe663;" 
d="M514 522q-28 0 -62 -31q-11 -10 -308 -273v-203q0 -14 10 -23.5t24 -9.5v0h191v0q7 0 12 4.5t5 11.5v146q0 7 5 11.5t11 4.5v0h215v0q7 0 12 -5q5 -4 5 -11v-146q0 -6 4.5 -11t11.5 -5h195v0q14 0 24 9.5t10 23.5v0v201q-300 269 -306 275q-33 31 -59 31zM1004 312
q-1 23 -21 42l-25 24q-23 22 -46 43q-27 25 -60 56q-34 32 -67 63l-68 63q-48 45 -60 57l-46 43l-24 22q-13 12 -33.5 20t-37.5 8h-3q-43 -1 -80 -36q-6 -5 -35 -31q-28 -26 -72 -66q-31 -28 -90 -81l-91 -82l-72 -65q-27 -24 -37 -33q-15 -14 -16 -39v-2q0 -24 18 -39
q17 -14 39 -14h4q24 1 39 12q6 5 29 25q15 13 57 52q36 33 73 65l74 68q20 18 62 56l37 33q30 26 60 26.5t62 -26.5q7 -6 32 -30q30 -28 61 -56l75 -68q16 -15 74 -69l60 -54q26 -23 30 -27q15 -12 39 -13h4q22 0 39 15q16 14 16 35v3zM1004 312z" />
    <glyph glyph-name="xiangyou" unicode="&#xe664;" 
d="M512 -96q-98 0 -186.5 38t-153 102.5t-102.5 153t-38 186.5t38 186.5t102.5 153t153 102.5t186.5 38t186.5 -38t153 -102.5t102.5 -153t38 -186.5t-38 -186.5t-102.5 -153t-153 -102.5t-186.5 -38zM512 774q-106 0 -196 -52t-142 -142t-52 -196t52 -196t142 -142t196 -52
t196 52t142 142t52 196t-52 196t-142 142t-196 52zM737 351v0l-150 -135v0q-13 -12 -30 -12q-19 0 -32 13t-13 32q0 20 15 33v0l63 57h-273q-19 0 -32 13t-13 32t13 32t32 13h273l-63 57v0q-15 13 -15 33q0 19 13 32t32 13q17 0 30 -12v0l150 -135v0q15 -13 15 -33t-15 -33z
" />
    <glyph glyph-name="shenqingchenggong" unicode="&#xe665;" 
d="M290 630v-453l110 110q4 3 8.5 3t8 -3.5t3.5 -8t-3 -8.5l-151 -150v533h449v-214q0 -5 -3.5 -8.5t-8.5 -3.5t-8.5 3.5t-3.5 8.5v191h-401zM348 571v0q0 5 3.5 8.5t8.5 3.5v0h257q5 0 8.5 -3.5t3.5 -8.5t-3.5 -8t-8.5 -3h-257v0q-5 0 -8.5 3t-3.5 8v0zM348 501
q0 5 3.5 8.5t8.5 3.5h257q5 0 8.5 -3.5t3.5 -8.5t-3.5 -8.5t-8.5 -3.5h-257v0q-5 0 -8.5 3.5t-3.5 8.5v0zM348 431q0 5 3.5 8.5t8.5 3.5h105q5 0 8.5 -3.5t3.5 -8.5t-3.5 -8.5t-8.5 -3.5h-105v0q-5 0 -8.5 3.5t-3.5 8.5v0zM607 97q-70 0 -119 48.5t-49 117.5t49 117.5
t119 48.5t119 -48.5t49 -117.5t-49 -117.5t-119 -48.5zM607 132q55 0 94 38.5t39 93t-39 92.5t-94 38t-94 -38t-39 -92.5t39 -93t94 -38.5zM544 281q-5 5 -12.5 5t-12.5 -5t-5 -12.5t5 -12.5l68 -71l119 106q5 5 5 12q0 8 -5 13t-13 5q-6 0 -11 -4l-93 -83zM512 -84
q95 0 182 37t149.5 99.5t99.5 149.5t37 182t-37 182t-99.5 149.5t-149.5 99.5t-182 37t-182 -37t-149.5 -99.5t-99.5 -149.5t-37 -182t37 -182t99.5 -149.5t149.5 -99.5t182 -37zM512 -96q-98 0 -186.5 38t-153 102.5t-102.5 153t-38 186.5t38 186.5t102.5 153t153 102.5
t186.5 38t186.5 -38t153 -102.5t102.5 -153t38 -186.5t-38 -186.5t-102.5 -153t-153 -102.5t-186.5 -38z" />
    <glyph glyph-name="fasongchenggong" unicode="&#xe666;" 
d="M1003 879q-64 2 -123.5 -9t-104 -31.5t-83 -46t-64.5 -51t-45 -48t-27.5 -35t-8.5 -13.5q-34 -3 -72.5 -18t-69.5 -35t-57 -39.5t-40 -33.5l-14 -13q28 5 57 5q53 0 103 -17q-12 -21 -21 -52.5t-11 -52.5l-3 -21l24 -24q12 20 39 54t48 59l22 24q21 24 41 39t33 19t23 5
t14 -2l5 -2l2 -3q1 -1 2 -4t0.5 -13.5t-5 -22.5t-20 -31.5t-39.5 -40.5q-93 -83 -137 -109l24 -24q80 8 126 35q18 -50 18 -102q0 -29 -6 -58q-2 -11 31.5 28.5t69 104.5t39.5 120q5 3 14 9t35 27.5t49.5 46t51.5 64.5t47.5 84t31.5 104t9 124h-8v0zM717 591q-12 13 -21 34
t-9 39q0 43 30.5 73.5t73.5 30.5q17 0 38.5 -9t34.5 -22l1 -1q13 -13 22 -34t9 -39q0 -43 -30.5 -73.5t-73.5 -30.5q-18 0 -39.5 9t-33.5 22zM751 732q19 11 40 11q34 0 57.5 -23.5t23.5 -57t-23.5 -57t-57 -23.5t-57 23.5t-23.5 56.5v0q0 19 12 39.5t28 30.5zM256 625
q-43 -43 -73.5 -116.5t-30.5 -134.5q0 -54 16 -106l-35 -38q-11 29 -19 71t-8 72q0 109 53.5 201.5t146 146t201.5 53.5h1h19l-29 -46q-58 -1 -129.5 -31.5t-112.5 -71.5zM423 329l-411 -426l393 444zM424 298q54 84 120 160q23 26 42 43t30.5 23t20.5 7t12 -0.5t4.5 -3.5
t3 -5t0.5 -11.5t-7 -20t-23 -31t-43 -42.5q-76 -65 -160 -119l-1 -1v0v0zM471 280l-445 -391l427 410zM762 120q42 41 72.5 112t31.5 129l46 29v-19q0 -109 -54 -201.5t-146.5 -146t-201.5 -53.5q-31 0 -73 8t-70 19l38 35q51 -16 106 -16q61 0 134.5 30.5t116.5 73.5v0z
" />
    <glyph glyph-name="jiantou" unicode="&#xe667;" 
d="M621 19l320 320q19 18 19 45t-19 45l-320 320q-18 19 -45 19t-45.5 -18.5t-18.5 -45.5t19 -45l211 -211h-614q-27 0 -45.5 -18.5t-18.5 -45.5t18.5 -45.5t45.5 -18.5h614l-211 -211q-19 -19 -19 -45.5t18.5 -45t45.5 -18.5t45 19z" />
    <glyph glyph-name="jiantou1" unicode="&#xe668;" 
d="M948 403h-826l324 324q5 5 5 13t-5.5 13.5t-13.5 5.5t-13 -6l-353 -353v0q-9 -6 -9 -16q0 -6 5 -12h-1l1 -1v0l357 -357q5 -5 13 -5t13.5 5.5t5.5 13.5t-5 13l-324 324h826q8 0 13.5 6t5.5 13.5t-5.5 13t-13.5 5.5z" />
    <glyph glyph-name="shoucang1" unicode="&#xe669;" horiz-adv-x="1025" 
d="M513 857q-20 0 -31 -12q-11 -11 -17 -28l-118 -271l-315 -28q-11 -2 -20 -10q-10 -9 -12 -23q-2 -13 7 -27t21 -25l11 -10l26 -22q25 -22 36 -30l40 -34q35 -30 109 -92l-35 -142l-14 -54q-8 -31 -12 -48q-5 -23 -9 -37l-5 -20q-2 -9 2 -17.5t13 -14.5q8 -6 19 -8h5v0
q8 0 16 4q5 2 20 10q12 6 35 20q12 7 46 26q31 18 50 29q53 29 132 75l266 -153l15 -6q10 -3 15 -3q15 0 28 6q12 7 9 27q-1 3 -4 20l-8 38q-5 24 -10 49q-4 23 -11 55q-17 82 -31 145l212 188q14 16 22 26t8 24q0 16 -8 23t-28 12l-316 29l-114 271q-2 4 -6 11q-4 6 -9 12
t-12 10q-8 5 -18 5v0z" />
  </font>
</defs>
</svg>
